<svg xmlns="http://www.w3.org/2000/svg" viewBox="0 0 500 500"><g id="freepik--background-simple--inject-155"><path d="M97.91,167.36C56.83,258.91,250.11,224,266.55,249.22c24.95,38.23-46.9,76.83-20.57,117.83,37,57.68,97.76,2.95,119.44-18.36,21.9-21.52,66.95-77.47,38.28-126.29-43.79-74.57-94.12-22.38-139.33-52.06-21.32-14,1.25-46.56-31.67-69.26C175.27,61.47,112.59,134.65,97.91,167.36Z" style="fill:#F47C46"></path><path d="M97.91,167.36C56.83,258.91,250.11,224,266.55,249.22c24.95,38.23-46.9,76.83-20.57,117.83,37,57.68,97.76,2.95,119.44-18.36,21.9-21.52,66.95-77.47,38.28-126.29-43.79-74.57-94.12-22.38-139.33-52.06-21.32-14,1.25-46.56-31.67-69.26C175.27,61.47,112.59,134.65,97.91,167.36Z" style="fill:#fff;opacity:0.9"></path></g><g id="freepik--Shadow--inject-155"><ellipse id="freepik--path--inject-155" cx="250" cy="416.24" rx="193.89" ry="11.32" style="fill:#f5f5f5"></ellipse></g><g id="freepik--Coins--inject-155"><rect x="93.15" y="394.46" width="98.19" height="18.48" style="fill:#F47C46"></rect><rect x="93.15" y="394.46" width="98.19" height="2.1" style="opacity:0.2"></rect><rect x="100.34" y="394.46" width="3.87" height="18.48" style="opacity:0.2"></rect><rect x="109.22" y="394.46" width="3.87" height="18.48" style="opacity:0.2"></rect><rect x="118.11" y="394.46" width="3.87" height="18.48" style="opacity:0.2"></rect><rect x="126.99" y="394.46" width="3.87" height="18.48" style="opacity:0.2"></rect><rect x="135.87" y="394.46" width="3.87" height="18.48" style="opacity:0.2"></rect><rect x="144.76" y="394.46" width="3.87" height="18.48" style="opacity:0.2"></rect><rect x="153.64" y="394.46" width="3.87" height="18.48" style="opacity:0.2"></rect><rect x="162.52" y="394.46" width="3.87" height="18.48" style="opacity:0.2"></rect><rect x="171.41" y="394.46" width="3.87" height="18.48" style="opacity:0.2"></rect><rect x="180.29" y="394.46" width="3.87" height="18.48" style="opacity:0.2"></rect><rect x="89.16" y="375.98" width="98.19" height="18.48" style="fill:#F47C46"></rect><rect x="89.16" y="375.98" width="98.19" height="2.1" style="opacity:0.2"></rect><rect x="96.34" y="375.98" width="3.87" height="18.48" style="opacity:0.2"></rect><rect x="105.23" y="375.98" width="3.87" height="18.48" style="opacity:0.2"></rect><rect x="114.11" y="375.98" width="3.87" height="18.48" style="opacity:0.2"></rect><rect x="122.99" y="375.98" width="3.87" height="18.48" style="opacity:0.2"></rect><rect x="131.88" y="375.98" width="3.87" height="18.48" style="opacity:0.2"></rect><rect x="140.76" y="375.98" width="3.87" height="18.48" style="opacity:0.2"></rect><rect x="149.64" y="375.98" width="3.87" height="18.48" style="opacity:0.2"></rect><rect x="158.53" y="375.98" width="3.87" height="18.48" style="opacity:0.2"></rect><rect x="167.41" y="375.98" width="3.87" height="18.48" style="opacity:0.2"></rect><rect x="176.29" y="375.98" width="3.87" height="18.48" style="opacity:0.2"></rect><rect x="86.33" y="357.5" width="98.19" height="18.48" style="fill:#F47C46"></rect><rect x="86.33" y="357.5" width="98.19" height="2.1" style="opacity:0.2"></rect><rect x="93.52" y="357.5" width="3.87" height="18.48" style="opacity:0.2"></rect><rect x="102.4" y="357.5" width="3.87" height="18.48" style="opacity:0.2"></rect><rect x="111.29" y="357.5" width="3.87" height="18.48" style="opacity:0.2"></rect><rect x="120.17" y="357.5" width="3.87" height="18.48" style="opacity:0.2"></rect><rect x="129.05" y="357.5" width="3.87" height="18.48" style="opacity:0.2"></rect><rect x="137.94" y="357.5" width="3.87" height="18.48" style="opacity:0.2"></rect><rect x="146.82" y="357.5" width="3.87" height="18.48" style="opacity:0.2"></rect><rect x="155.7" y="357.5" width="3.87" height="18.48" style="opacity:0.2"></rect><rect x="164.59" y="357.5" width="3.87" height="18.48" style="opacity:0.2"></rect><rect x="173.47" y="357.5" width="3.87" height="18.48" style="opacity:0.2"></rect><rect x="90.78" y="339.03" width="98.19" height="18.48" style="fill:#F47C46"></rect><rect x="90.78" y="339.03" width="98.19" height="2.1" style="opacity:0.2"></rect><rect x="97.96" y="339.03" width="3.87" height="18.48" style="opacity:0.2"></rect><rect x="106.85" y="339.03" width="3.87" height="18.48" style="opacity:0.2"></rect><rect x="115.73" y="339.03" width="3.87" height="18.48" style="opacity:0.2"></rect><rect x="124.61" y="339.03" width="3.87" height="18.48" style="opacity:0.2"></rect><rect x="133.5" y="339.03" width="3.87" height="18.48" style="opacity:0.2"></rect><rect x="142.38" y="339.03" width="3.87" height="18.48" style="opacity:0.2"></rect><rect x="151.26" y="339.03" width="3.87" height="18.48" style="opacity:0.2"></rect><rect x="160.15" y="339.03" width="3.87" height="18.48" style="opacity:0.2"></rect><rect x="169.03" y="339.03" width="3.87" height="18.48" style="opacity:0.2"></rect><rect x="177.91" y="339.03" width="3.87" height="18.48" style="opacity:0.2"></rect><rect x="86.46" y="320.55" width="98.19" height="18.48" transform="translate(271.12 659.57) rotate(180)" style="fill:#F47C46"></rect><rect x="86.46" y="320.55" width="98.19" height="2.1" transform="translate(271.12 643.19) rotate(180)" style="opacity:0.2"></rect><rect x="173.6" y="320.55" width="3.87" height="18.48" transform="translate(351.07 659.57) rotate(180)" style="opacity:0.2"></rect><rect x="164.72" y="320.55" width="3.87" height="18.48" transform="translate(333.3 659.57) rotate(180)" style="opacity:0.2"></rect><rect x="155.83" y="320.55" width="3.87" height="18.48" transform="translate(315.53 659.57) rotate(180)" style="opacity:0.2"></rect><rect x="146.95" y="320.55" width="3.87" height="18.48" transform="translate(297.77 659.57) rotate(180)" style="opacity:0.2"></rect><rect x="138.07" y="320.55" width="3.87" height="18.48" transform="translate(280 659.57) rotate(180)" style="opacity:0.2"></rect><rect x="129.18" y="320.55" width="3.87" height="18.48" transform="translate(262.23 659.57) rotate(180)" style="opacity:0.2"></rect><rect x="120.3" y="320.55" width="3.87" height="18.48" transform="translate(244.47 659.57) rotate(180)" style="opacity:0.2"></rect><rect x="111.42" y="320.55" width="3.87" height="18.48" transform="translate(226.7 659.57) rotate(180)" style="opacity:0.2"></rect><rect x="102.53" y="320.55" width="3.87" height="18.48" transform="translate(208.93 659.57) rotate(180)" style="opacity:0.2"></rect><rect x="93.65" y="320.55" width="3.87" height="18.48" transform="translate(191.17 659.57) rotate(180)" style="opacity:0.2"></rect><rect x="90.46" y="302.07" width="98.19" height="18.48" transform="translate(279.11 622.62) rotate(180)" style="fill:#F47C46"></rect><rect x="90.46" y="302.07" width="98.19" height="2.1" transform="translate(279.11 606.24) rotate(180)" style="opacity:0.2"></rect><rect x="177.6" y="302.07" width="3.87" height="18.48" transform="translate(359.06 622.62) rotate(180)" style="opacity:0.2"></rect><rect x="168.71" y="302.07" width="3.87" height="18.48" transform="translate(341.3 622.62) rotate(180)" style="opacity:0.2"></rect><rect x="159.83" y="302.07" width="3.87" height="18.48" transform="translate(323.53 622.62) rotate(180)" style="opacity:0.2"></rect><rect x="150.95" y="302.07" width="3.87" height="18.48" transform="translate(305.76 622.62) rotate(180)" style="opacity:0.2"></rect><rect x="142.06" y="302.07" width="3.87" height="18.48" transform="translate(288 622.62) rotate(180)" style="opacity:0.2"></rect><rect x="133.18" y="302.07" width="3.87" height="18.48" transform="translate(270.23 622.62) rotate(180)" style="opacity:0.2"></rect><rect x="124.3" y="302.07" width="3.87" height="18.48" transform="translate(252.46 622.62) rotate(180)" style="opacity:0.2"></rect><rect x="115.41" y="302.07" width="3.87" height="18.48" transform="translate(234.7 622.62) rotate(180)" style="opacity:0.2"></rect><rect x="106.53" y="302.07" width="3.87" height="18.48" transform="translate(216.93 622.62) rotate(180)" style="opacity:0.2"></rect><rect x="97.65" y="302.07" width="3.87" height="18.48" transform="translate(199.16 622.62) rotate(180)" style="opacity:0.2"></rect><rect x="93.28" y="283.59" width="98.19" height="18.48" transform="translate(284.76 585.66) rotate(180)" style="fill:#F47C46"></rect><rect x="93.28" y="283.59" width="98.19" height="2.1" transform="translate(284.76 569.28) rotate(180)" style="opacity:0.2"></rect><rect x="180.42" y="283.59" width="3.87" height="18.48" transform="translate(364.71 585.66) rotate(180)" style="opacity:0.2"></rect><rect x="171.54" y="283.59" width="3.87" height="18.48" transform="translate(346.94 585.66) rotate(180)" style="opacity:0.2"></rect><rect x="162.65" y="283.59" width="3.87" height="18.48" transform="translate(329.17 585.66) rotate(180)" style="opacity:0.2"></rect><rect x="153.77" y="283.59" width="3.87" height="18.48" transform="translate(311.41 585.66) rotate(180)" style="opacity:0.2"></rect><rect x="144.89" y="283.59" width="3.87" height="18.48" transform="translate(293.64 585.66) rotate(180)" style="opacity:0.2"></rect><rect x="136" y="283.59" width="3.87" height="18.48" transform="translate(275.87 585.66) rotate(180)" style="opacity:0.2"></rect><rect x="127.12" y="283.59" width="3.87" height="18.48" transform="translate(258.11 585.66) rotate(180)" style="opacity:0.2"></rect><rect x="118.24" y="283.59" width="3.87" height="18.48" transform="translate(240.34 585.66) rotate(180)" style="opacity:0.2"></rect><rect x="109.35" y="283.59" width="3.87" height="18.48" transform="translate(222.57 585.66) rotate(180)" style="opacity:0.2"></rect><rect x="100.47" y="283.59" width="3.87" height="18.48" transform="translate(204.81 585.66) rotate(180)" style="opacity:0.2"></rect><rect x="88.84" y="265.11" width="98.19" height="18.48" transform="translate(275.87 548.7) rotate(180)" style="fill:#F47C46"></rect><rect x="88.84" y="265.11" width="98.19" height="2.1" transform="translate(275.87 532.32) rotate(180)" style="opacity:0.2"></rect><rect x="175.98" y="265.11" width="3.87" height="18.48" transform="translate(355.82 548.7) rotate(180)" style="opacity:0.2"></rect><rect x="167.09" y="265.11" width="3.87" height="18.48" transform="translate(338.06 548.7) rotate(180)" style="opacity:0.2"></rect><rect x="158.21" y="265.11" width="3.87" height="18.48" transform="translate(320.29 548.7) rotate(180)" style="opacity:0.2"></rect><rect x="149.33" y="265.11" width="3.87" height="18.48" transform="translate(302.52 548.7) rotate(180)" style="opacity:0.2"></rect><rect x="140.44" y="265.11" width="3.87" height="18.48" transform="translate(284.76 548.7) rotate(180)" style="opacity:0.2"></rect><rect x="131.56" y="265.11" width="3.87" height="18.48" transform="translate(266.99 548.7) rotate(180)" style="opacity:0.2"></rect><rect x="122.68" y="265.11" width="3.87" height="18.48" transform="translate(249.22 548.7) rotate(180)" style="opacity:0.2"></rect><rect x="113.79" y="265.11" width="3.87" height="18.48" transform="translate(231.46 548.7) rotate(180)" style="opacity:0.2"></rect><rect x="104.91" y="265.11" width="3.87" height="18.48" transform="translate(213.69 548.7) rotate(180)" style="opacity:0.2"></rect><rect x="96.03" y="265.11" width="3.87" height="18.48" transform="translate(195.92 548.7) rotate(180)" style="opacity:0.2"></rect></g><g id="freepik--Growth--inject-155"><path d="M400.66,192l-39.16,6.71a3.85,3.85,0,0,0-1.57,6.95l7.22,5.11-44.27,62.58a3.79,3.79,0,0,1-5.29.9l-65.07-46a3.81,3.81,0,0,0-5.3.91L116.05,414.56h47.14l93.23-131.79a3.79,3.79,0,0,1,5.29-.9l65.07,46a3.8,3.8,0,0,0,5.3-.91l66.49-94,7.23,5.11a3.86,3.86,0,0,0,6-3.8l-6.72-39.16A3.85,3.85,0,0,0,400.66,192Z" style="fill:#F47C46"></path><path d="M400.66,192l-39.16,6.71a3.85,3.85,0,0,0-1.57,6.95l7.22,5.11-44.27,62.58a3.79,3.79,0,0,1-5.29.9l-65.07-46a3.81,3.81,0,0,0-5.3.91L116.05,414.56h47.14l93.23-131.79a3.79,3.79,0,0,1,5.29-.9l65.07,46a3.8,3.8,0,0,0,5.3-.91l66.49-94,7.23,5.11a3.86,3.86,0,0,0,6-3.8l-6.72-39.16A3.85,3.85,0,0,0,400.66,192Z" style="opacity:0.2"></path><path d="M160.24,409.11H127.06a.26.26,0,0,1-.22-.14.25.25,0,0,1,0-.26l121.52-171.8a4.05,4.05,0,0,1,5.65-1l65.06,46a3.55,3.55,0,0,0,5-.85l50.71-71.68-8-5.69a.23.23,0,0,1-.1-.26.25.25,0,0,1,.2-.19l33-5.65a.24.24,0,0,1,.28.2l5.65,33a.27.27,0,0,1-.11.26.26.26,0,0,1-.28,0l-8-5.69-66.35,93.8a4.05,4.05,0,0,1-5.64,1l-65.07-46a3.55,3.55,0,0,0-4.95.85L160.45,409A.26.26,0,0,1,160.24,409.11Zm-32.7-.5h32.57l94.74-133.93a4.06,4.06,0,0,1,5.65-1l65.07,46a3.55,3.55,0,0,0,4.95-.85l66.49-94a.21.21,0,0,1,.16-.1.22.22,0,0,1,.19,0l7.75,5.48L399.6,198.2l-32.11,5.5,7.75,5.48a.27.27,0,0,1,.1.16.25.25,0,0,1,0,.19l-50.85,71.89a4,4,0,0,1-2.62,1.65,4.07,4.07,0,0,1-3-.68l-65.06-46a3.55,3.55,0,0,0-5,.85Z" style="fill:#fff;opacity:0.2"></path></g><g id="freepik--Chart--inject-155"><rect x="343.94" y="351.79" width="4.11" height="61.15" style="fill:#263238"></rect><rect x="379.9" y="318.47" width="4.11" height="94.47" style="fill:#263238"></rect><rect x="416.52" y="341.13" width="4.11" height="71.81" style="fill:#263238"></rect><rect x="315.13" y="351.79" width="28.82" height="61.15" style="fill:#F47C46"></rect><polygon points="315.13 351.79 315.13 388.05 329.53 351.79 315.13 351.79" style="fill:#fff;opacity:0.2"></polygon><rect x="351.08" y="318.47" width="28.82" height="94.47" style="fill:#F47C46"></rect><polygon points="351.08 318.47 351.08 354.73 365.49 318.47 351.08 318.47" style="fill:#fff;opacity:0.2"></polygon><rect x="387.71" y="341.13" width="28.82" height="71.81" style="fill:#F47C46"></rect><polygon points="387.71 341.13 387.71 373.4 402.12 341.13 387.71 341.13" style="fill:#fff;opacity:0.2"></polygon></g></svg>