<?xml version="1.0" encoding="UTF-8"?>
<svg width="660px" height="520px" viewBox="0 0 660 520" version="1.1" xmlns="http://www.w3.org/2000/svg" xmlns:xlink="http://www.w3.org/1999/xlink">
    <!-- Generator: Sketch 59.1 (86144) - https://sketch.com -->
    <title>img_The science of behind your drug reactions</title>
    <desc>Created with Sketch.</desc>
    <defs>
        <path d="M262.466633,14.6416649 L428.966633,110.636909 C448.787103,122.064362 461,143.203025 461,166.081786 L461,357.918214 C461,380.796975 448.787103,401.935638 428.966633,413.363091 L262.466633,509.358335 C242.681931,520.765166 218.318069,520.765166 198.533367,509.358335 L32.0333665,413.363091 C12.2128967,401.935638 1.70126948e-14,380.796975 0,357.918214 L0,166.081786 C2.15692254e-14,143.203025 12.2128967,122.064362 32.0333665,110.636909 L198.533367,14.6416649 C218.318069,3.23483374 242.681931,3.23483374 262.466633,14.6416649 Z" id="path-1"></path>
        <linearGradient x1="50%" y1="50%" x2="50%" y2="-12.50155%" id="linearGradient-3">
            <stop stop-color="#E8F3FE" stop-opacity="0" offset="0%"></stop>
            <stop stop-color="#AED1FF" offset="100%"></stop>
        </linearGradient>
        <rect id="path-4" x="0" y="0" width="15.5860886" height="52.5452495"></rect>
        <rect id="path-6" x="0" y="0" width="52.4259343" height="37.6337597"></rect>
        <rect id="path-8" x="0" y="0" width="60.2189786" height="22.0121991"></rect>
        <polygon id="path-10" points="0 0 29.0468015 0 29.0468015 91.5991511 0 91.5991511"></polygon>
        <rect id="path-12" x="0" y="0" width="27.9794778" height="30.5330504"></rect>
        <rect id="path-14" x="0" y="0" width="39.8707558" height="44.0243982"></rect>
        <rect id="path-16" x="0" y="0" width="35.6200044" height="51.8351785"></rect>
        <rect id="path-18" x="0" y="0" width="18.4199229" height="80.948087"></rect>
        <polygon id="path-20" points="0 0 29.75526 0 29.75526 70.2970229 0 70.2970229"></polygon>
        <rect id="path-22" x="0" y="0" width="48.1751829" height="75.9775904"></rect>
        <rect id="path-24" x="0" y="0" width="72.2627744" height="42.6042563"></rect>
        <polygon id="path-26" points="0 0 29.0468015 0 29.0468015 70.2970229 0 70.2970229"></polygon>
        <polygon id="path-28" points="0 0 29.0468015 0 29.0468015 70.2970229 0 70.2970229"></polygon>
        <rect id="path-30" x="0" y="0" width="19.83684" height="36.2136179"></rect>
        <rect id="path-32" x="0" y="0" width="25.5045086" height="46.154611"></rect>
        <rect id="path-34" x="0" y="0" width="25.5045086" height="46.154611"></rect>
        <path d="M10.0740213,0.394282669 L6.86333416,23.7449972 L0.0133553273,36.6810123 C2.75163515,58.9115608 7.76415432,72.4687018 15.0509129,77.3524352 C25.9810506,84.6780352 29.4127465,82.229412 34.1322608,89.6464226 C37.2786037,94.5910962 38.1482449,97.8876494 36.7411844,99.5360819 L96.4623018,51.3100711 L10.0740213,0.394282669 Z" id="path-36"></path>
        <path d="M76.9237895,130.12019 L71.5912158,108.215464 L54.0812622,52.1552123 C51.688248,44.4936855 47.7823203,37.3901802 42.5947369,31.265273 L33.0413662,19.9857416 L33.0413662,19.9857416 L17.2411585,1.50307783 C15.7795941,-0.206621432 13.2460595,-0.498026278 11.4345004,0.835201293 C9.5724446,2.20559224 8.95417051,4.70999194 9.96452929,6.78951072 L11.8106414,10.5891755 L11.8106414,10.5891755 L6.60648185,16.1862351 L17.7201522,33.6128063 L23.2962881,46.137292 L25.7300114,62.6166774 C26.689166,69.1113668 22.2017284,75.1539011 15.707039,76.1130557 C14.4132168,76.3041311 13.0967306,76.2803833 11.8106414,76.0427695 L11.8106414,76.0427695 L11.8106414,76.0427695 L6.16930552,73.8235766 L0.392528445,87.9498758 L7.50695858,91.2618613 C14.1307989,94.3454622 19.5544608,99.5250994 22.9395183,106.00007 C26.2449027,112.322641 32.2005263,116.839282 39.180311,118.316805 L39.7451284,118.436369 L39.7451284,118.436369 L39.7451284,131.890534 C48.1177531,138.216676 59.3770749,139.178811 68.7016398,134.364935 L76.9237895,130.12019 L76.9237895,130.12019 Z" id="path-38"></path>
        <path d="M22.5762729,5.29142865 L25.1631028,5.06263417 L25.1631028,5.06263417 C29.8085493,1.20609868 35.9330324,-0.375414826 41.864897,0.749761918 L42.6087194,0.89085275 L42.6087194,0.89085275 C46.9778736,-0.359776103 51.619009,-0.292691748 55.9501915,1.08369437 L58.8898019,2.0178593 C64.9814399,3.95369229 69.9479415,8.41312206 72.5261154,14.2619273 L76.0439349,22.2423976 L76.0439349,22.2423976 L83.5009288,22.2423976 C86.5990631,22.2423976 89.4177847,24.0338508 90.7331658,26.8388835 L91.365478,28.1872808 C92.3026734,30.1858376 92.0594244,32.5385903 90.7331658,34.3031306 C89.3411105,36.1552111 87.3395158,37.4559745 85.0816891,37.9758193 L76.0439349,40.0566829 L76.0439349,40.0566829 L75.2505753,41.5466294 C74.5333656,42.8935648 73.1317778,43.7351546 71.6057947,43.7351546 C69.9963965,43.7351546 68.4304487,43.2129437 67.1431837,42.2469669 L66.2080218,41.5452119 C64.3362428,40.1406097 63.0841404,38.0630728 62.7165018,35.7519463 L61.9089393,30.675278 L61.9089393,30.675278 L58.2597142,40.3559885 C57.4932619,42.3892429 55.5475473,43.7351546 53.3746293,43.7351546 C51.1041905,43.7351546 48.9692416,42.6547621 47.6245834,40.8253396 L45.969047,38.5729636 L45.969047,38.5729636 L45.06043,39.8891914 C43.3979858,42.2974176 40.6584517,43.7351546 37.7321445,43.7351546 L37.2514088,43.7351546 C34.6664302,43.7351546 32.2874381,42.3246672 31.0471311,40.0566829 L31.0471311,40.0566829 L31.0471311,40.0566829 L29.4857355,41.6303868 C28.1491823,42.9774759 26.330092,43.7351546 24.4324558,43.7351546 C22.4867999,43.7351546 20.5721078,43.2480056 18.8630336,42.3181443 L16.1781127,40.857351 L16.1781127,40.857351 L-1.56319402e-13,25.6859744 L8.02433262,11.5743843 L13.250339,11.5743843 C15.0724491,8.01634935 18.5943558,5.64361287 22.5762729,5.29142865 Z" id="path-40"></path>
        <rect id="path-42" x="0" y="0" width="87.7765168" height="52.1834862"></rect>
        <rect id="path-44" x="0" y="0" width="87.7765168" height="52.1834862"></rect>
        <rect id="path-46" x="0" y="0" width="87.8301887" height="52.1834862"></rect>
        <path d="M14.1394714,5.68434189e-14 L32.2613712,5.68434189e-14 L32.2613712,10.2814801 C32.2613712,15.3783895 33.5523403,20.3905345 36.0114612,24.8410813 L42.3536852,36.319315 C44.3209819,39.8797524 45.3537571,43.8894684 45.3537571,47.966996 L45.3537571,73.945009 C45.3537571,78.8944793 35.2034128,82.9068177 22.6823285,82.9068177 C10.1612443,82.9068177 0.0108999496,78.8944793 0.0108999496,73.945009 L0.0108999496,73.945009 L0.0108999496,48.4137799 C0.0108999496,44.0537067 1.1916707,39.7767135 3.42535287,36.0459329 L9.90256746,25.2274436 C12.7115039,20.5358515 14.188058,15.1538023 14.1704785,9.67088066" id="path-48"></path>
        <path d="M10.5142857,13.2767536 C16.3211654,13.2767536 21.0285714,11.4934921 21.0285714,9.29372752 C21.0285714,8.56346898 21.0285714,5.46555981 21.0285714,0 L0,0 C0,5.55853863 0,8.6564478 0,9.29372752 C0,11.4934921 4.70740606,13.2767536 10.5142857,13.2767536 Z" id="path-50"></path>
        <path d="M89.7546859,32.2527552 L135.149423,58.3484151 C144.336332,63.6296101 150,73.4182339 150,84.0149468 L150,135.985053 C150,146.581766 144.336332,156.37039 135.149423,161.651585 L89.7546859,187.747245 C80.6191858,192.998887 69.3808142,192.998887 60.2453141,187.747245 L14.8505773,161.651585 C5.66366796,156.37039 1.19558641e-14,146.581766 0,135.985053 L0,84.0149468 C1.05135902e-14,73.4182339 5.66366796,63.6296101 14.8505773,58.3484151 L60.2453141,32.2527552 C69.3808142,27.0011133 80.6191858,27.0011133 89.7546859,32.2527552 Z" id="path-52"></path>
        <filter x="-62.7%" y="-98.6%" width="252.0%" height="230.2%" filterUnits="objectBoundingBox" id="filter-53">
            <feOffset dx="20" dy="-57" in="SourceAlpha" result="shadowOffsetOuter1"></feOffset>
            <feGaussianBlur stdDeviation="28.5" in="shadowOffsetOuter1" result="shadowBlurOuter1"></feGaussianBlur>
            <feColorMatrix values="0 0 0 0 0.388235294   0 0 0 0 0.51372549   0 0 0 0 0.662745098  0 0 0 0.08 0" type="matrix" in="shadowBlurOuter1"></feColorMatrix>
        </filter>
    </defs>
    <g id="Design" stroke="none" stroke-width="1" fill="none" fill-rule="evenodd">
        <g id="Homepage_V6" transform="translate(-704.000000, -1656.000000)">
            <g id="The-science-of-behind-your-drug-reactions." transform="translate(135.000000, 1650.000000)">
                <g id="img_The-science-of-behind-your-drug-reactions." transform="translate(645.000000, 0.000000)">
                    <path d="M409.472054,115.328211 L575.472054,210.693097 C580.128812,213.368345 583,218.329065 583,223.699572 L583,414.300428 C583,419.670935 580.128812,424.631655 575.472054,427.306903 L409.472054,522.671789 C404.845263,525.329822 399.154737,525.329822 394.527946,522.671789 L228.527946,427.306903 C223.871188,424.631655 221,419.670935 221,414.300428 L221,223.699572 C221,218.329065 223.871188,213.368345 228.527946,210.693097 L394.527946,115.328211 C399.154737,112.670178 404.845263,112.670178 409.472054,115.328211 Z" id="Polygon-Copy-12" stroke="#1FAF9E" transform="translate(402.000000, 319.000000) rotate(180.000000) translate(-402.000000, -319.000000) "></path>
                    <g id="Img_your-medication" transform="translate(294.500000, 262.000000) scale(-1, 1) translate(-294.500000, -262.000000) translate(64.000000, 0.000000)">
                        <mask id="mask-2" fill="white">
                            <use xlink:href="#path-1"></use>
                        </mask>
                        <use id="Mask" fill="#F0F6FC" transform="translate(230.500000, 262.000000) rotate(180.000000) translate(-230.500000, -262.000000) " xlink:href="#path-1"></use>
                        <g id="Group-3-Copy" opacity="0.584705171" mask="url(#mask-2)">
                            <g transform="translate(-168.000000, 66.000000)">
                                <polygon id="Rectangle-2" stroke="none" fill="url(#linearGradient-3)" opacity="0.3" points="0.659793814 99.3727356 448 99.3727356 448 197.827013 0.659793814 197.827013"></polygon>
                                <g id="Group-10-Copy-4" stroke="none" stroke-width="1" fill="none" transform="translate(0.000000, 0.257691)">
                                    <g id="Group-15" transform="translate(0.000000, 0.028005)">
                                        <g id="Rectangle-2-Copy-9-+-Rectangle-2-Copy-10-Mask" transform="translate(254.696328, 164.026387)">
                                            <mask id="mask-5" fill="white">
                                                <use xlink:href="#path-4"></use>
                                            </mask>
                                            <use id="Mask" fill="#9AC6FF" opacity="0.835484601" xlink:href="#path-4"></use>
                                            <rect id="Rectangle-2-Copy-9" stroke="#5496ED" stroke-width="0.919987238" opacity="0.62352808" mask="url(#mask-5)" x="-0.248464953" y="14.6614124" width="16.0830185" height="23.2224247"></rect>
                                            <line x1="-0.708458572" y1="26.2726247" x2="16.5964809" y2="26.2726247" id="Path-57" stroke="#5496ED" stroke-width="0.919987238" mask="url(#mask-5)"></line>
                                        </g>
                                        <g id="Rectangle-4-Copy-6" transform="translate(66.104932, 53.965391)">
                                            <mask id="mask-7" fill="white">
                                                <use xlink:href="#path-6"></use>
                                            </mask>
                                            <use id="Mask" fill="#689EE3" xlink:href="#path-6"></use>
                                            <polygon fill="#C5DEFF" mask="url(#mask-7)" points="-1.41691714 -1.42014188 53.8428515 -1.42014188 53.8428515 21.3043842 36.1313872 37.6337597 16.2945472 37.6337597 -1.41691714 21.3043842"></polygon>
                                        </g>
                                        <g id="Combined-Shape-Copy-24" transform="translate(190.793640, 195.269508)">
                                            <mask id="mask-9" fill="white">
                                                <use xlink:href="#path-8"></use>
                                            </mask>
                                            <use id="Mask" fill="#DEECFF" xlink:href="#path-8"></use>
                                            <path d="M-1.41691714,7.81078032 L-1.41691714,-1.42014188 L61.6358958,-1.42014188 L61.6358958,7.81078032 L35.4229286,7.81078032 C35.4229286,10.5559098 33.2026147,12.7812769 30.4637186,12.7812769 C27.7248225,12.7812769 25.5045086,10.5559098 25.5045086,7.81078032 L25.5045086,7.81078032 L-1.41691714,7.81078032 Z" id="Combined-Shape" stroke="#0448A2" stroke-width="1.4131004" fill="#FFFFFF" mask="url(#mask-9)"></path>
                                        </g>
                                        <g id="Rectangle-2-Copy-5-+-Rectangle-2-Copy-4-Mask" transform="translate(127.740827, 0.000000)">
                                            <mask id="mask-11" fill="white">
                                                <use xlink:href="#path-10"></use>
                                            </mask>
                                            <use id="Mask" fill="#9AC6FF" opacity="0.461560236" xlink:href="#path-10"></use>
                                            <rect id="Rectangle-2-Copy-5" stroke="#5496ED" stroke-width="0.919987238" mask="url(#mask-11)" x="-0.956923525" y="45.1944628" width="30.9606485" height="47.3648366"></rect>
                                            <path d="M-0.956923525,-0.960148258 L-0.956923525,92.5592993 L14.4176364,92.5592993 L14.4176364,-0.960148258 L-0.956923525,-0.960148258 Z" id="Rectangle-2-Copy-4" stroke="#5496ED" stroke-width="0.919987238" mask="url(#mask-11)"></path>
                                        </g>
                                        <g id="Oval-5-Copy-2" transform="translate(278.075461, 185.328515)">
                                            <mask id="mask-13" fill="white">
                                                <use xlink:href="#path-12"></use>
                                            </mask>
                                            <use id="Mask" fill="#9AC6FF" xlink:href="#path-12"></use>
                                            <ellipse id="Oval-5" stroke="#FFFFFF" stroke-width="0.919987238" mask="url(#mask-13)" cx="-0.232684272" cy="15.2665252" rx="10.3941943" ry="10.2960286"></ellipse>
                                        </g>
                                        <g id="Oval-5-Copy" transform="translate(114.280115, 172.359970)">
                                            <mask id="mask-15" fill="white">
                                                <use xlink:href="#path-14"></use>
                                            </mask>
                                            <use id="Mask" fill="#9AC6FF" xlink:href="#path-14"></use>
                                            <ellipse id="Oval-5" stroke="#FFFFFF" stroke-width="0.919987238" mask="url(#mask-15)" cx="20.1910693" cy="21.6571636" rx="10.9811079" ry="11.0060995"></ellipse>
                                        </g>
                                        <g id="Rectangle-2-Copy-6-+-Rectangle-2-Copy-7-Mask" transform="translate(164.580673, 39.763973)">
                                            <mask id="mask-17" fill="white">
                                                <use xlink:href="#path-16"></use>
                                            </mask>
                                            <use id="Mask" fill="#5496ED" opacity="0.630887681" xlink:href="#path-16"></use>
                                            <rect id="Rectangle-2-Copy-6" stroke="#FFFFFF" stroke-width="0.919987238" mask="url(#mask-17)" x="-0.956923525" y="26.7326183" width="37.5338514" height="26.0627084"></rect>
                                            <rect id="Rectangle-2-Copy-7" stroke="#FFFFFF" stroke-width="0.919987238" fill="#93BDF4" mask="url(#mask-17)" x="14.6291651" y="21.7621218" width="7.07013283" height="10.4411478"></rect>
                                        </g>
                                        <g id="Rectangle-2-Copy-2-+-Path-49-Mask-Copy" transform="translate(161.038380, 137.043691)">
                                            <mask id="mask-19" fill="white">
                                                <use xlink:href="#path-18"></use>
                                            </mask>
                                            <use id="Mask" fill="#C4DDFF" xlink:href="#path-18"></use>
                                            <rect id="Rectangle-2-Copy-2" fill="#FFFFFF" mask="url(#mask-19)" x="2.83383429" y="30.5330504" width="12.7522543" height="13.4913478"></rect>
                                            <line x1="2.83383429" y1="48.7228154" x2="15.5860886" y2="48.7228154" id="Path-49" stroke="#FFFFFF" stroke-width="0.919987238" mask="url(#mask-19)"></line>
                                        </g>
                                        <g id="Path-51-+-Path-51-Copy-+-Path-51-Copy-2-Mask" transform="translate(206.379729, 21.302128)">
                                            <mask id="mask-21" fill="white">
                                                <use xlink:href="#path-20"></use>
                                            </mask>
                                            <use id="Mask" fill="#9AC6FF" xlink:href="#path-20"></use>
                                            <line x1="5.1051762" y1="7.6319198" x2="21.4143593" y2="7.6319198" id="Path-51" stroke="#5496ED" stroke-width="0.919987238" mask="url(#mask-21)"></line>
                                            <line x1="5.1051762" y1="14.7326292" x2="11.4959393" y2="14.7326292" id="Path-51-Copy" stroke="#5496ED" stroke-width="0.919987238" mask="url(#mask-21)"></line>
                                            <line x1="5.1051762" y1="21.8333386" x2="11.4959393" y2="21.8333386" id="Path-51-Copy-2" stroke="#5496ED" stroke-width="0.919987238" mask="url(#mask-21)"></line>
                                        </g>
                                        <g id="Rectangle-6-Copy-+-Path-52-Mask" transform="translate(241.094199, 16.331632)">
                                            <mask id="mask-23" fill="white">
                                                <use xlink:href="#path-22"></use>
                                            </mask>
                                            <use id="Mask" fill="#FFFFFF" xlink:href="#path-22"></use>
                                            <path d="M-0.533729396,22.1853159 L-0.533729396,32.4901464 L48.7089123,32.4901464 L48.7089123,22.1853159 L-0.533729396,22.1853159 Z" id="Rectangle-6-Copy" stroke="#AED1FF" stroke-width="1.7663755" opacity="0.815613678" mask="url(#mask-23)"></path>
                                            <line x1="15.5860886" y1="46.154611" x2="33.1561489" y2="46.154611" id="Path-52" stroke="#AED1FF" stroke-width="1.7663755" mask="url(#mask-23)"></line>
                                        </g>
                                        <g id="Path-53" transform="translate(296.353968, 48.994895)">
                                            <mask id="mask-25" fill="white">
                                                <use xlink:href="#path-24"></use>
                                            </mask>
                                            <use id="Mask" fill="#9AC6FF" xlink:href="#path-24"></use>
                                            <polygon stroke="#0448A2" stroke-width="0.919987238" fill="#FFFFFF" mask="url(#mask-25)" points="7.19677837 43.2851171 54.1802185 -3.05707151 -11.0873732 -27.5443919 -50.8693463 43.2851171"></polygon>
                                        </g>
                                        <g id="Path-54-+-Path-54-Copy-+-Path-54-Copy-3-+-Path-54-Copy-2-Mask" transform="translate(374.992869, 22.012199)">
                                            <mask id="mask-27" fill="white">
                                                <use xlink:href="#path-26"></use>
                                            </mask>
                                            <use id="Mask" fill="#DEECFF" xlink:href="#path-26"></use>
                                            <line x1="11.4320696" y1="12.7225042" x2="11.4320696" y2="30.5645411" id="Path-54" stroke="#5496ED" stroke-width="0.919987238" mask="url(#mask-27)"></line>
                                            <line x1="17.0997382" y1="12.7225042" x2="17.0997382" y2="30.5645411" id="Path-54-Copy" stroke="#5496ED" stroke-width="0.919987238" mask="url(#mask-27)"></line>
                                            <line x1="11.4320696" y1="41.1253417" x2="11.4320696" y2="58.9673786" id="Path-54-Copy-3" stroke="#5496ED" stroke-width="0.919987238" mask="url(#mask-27)"></line>
                                            <line x1="17.0997382" y1="41.1253417" x2="17.0997382" y2="58.9673786" id="Path-54-Copy-2" stroke="#5496ED" stroke-width="0.919987238" mask="url(#mask-27)"></line>
                                        </g>
                                        <g id="Path-54-+-Path-54-Copy-+-Path-54-Copy-3-+-Path-54-Copy-2-Mask-Copy" transform="translate(417.500383, 147.694755)">
                                            <mask id="mask-29" fill="white">
                                                <use xlink:href="#path-28"></use>
                                            </mask>
                                            <use id="Mask" fill="#FFFFFF" opacity="0.718580163" xlink:href="#path-28"></use>
                                            <line x1="17.0997382" y1="12.7225042" x2="17.0997382" y2="30.5645411" id="Path-54-Copy" stroke="#689EE3" stroke-width="2.03486457" mask="url(#mask-29)"></line>
                                        </g>
                                        <g id="Path-58" opacity="0.695482337" transform="translate(357.989863, 180.358018)">
                                            <mask id="mask-31" fill="white">
                                                <use xlink:href="#path-30"></use>
                                            </mask>
                                            <use id="Mask" fill="#9AC6FF" xlink:href="#path-30"></use>
                                            <line x1="0.0772775011" y1="-0.0445337814" x2="22.110164" y2="22.5847288" stroke="#0448A2" stroke-width="1.01743229" mask="url(#mask-31)"></line>
                                        </g>
                                        <g id="Path-59-+-Path-60-Mask" transform="translate(383.494372, 169.706954)">
                                            <mask id="mask-33" fill="white">
                                                <use xlink:href="#path-32"></use>
                                            </mask>
                                            <use id="Mask" fill="#DEECFF" xlink:href="#path-32"></use>
                                            <line x1="3.54229286" y1="7.10070939" x2="21.2881975" y2="7.10070939" id="Path-59" stroke="#0448A2" stroke-width="1.01743229" mask="url(#mask-33)"></line>
                                            <line x1="12.7522543" y1="7.10070939" x2="12.7522543" y2="47.8599544" id="Path-60" stroke="#0448A2" stroke-width="1.01743229" mask="url(#mask-33)"></line>
                                        </g>
                                        <g id="Path-59-+-Path-60-Mask-Copy-2" transform="translate(411.832715, 45.967343)">
                                            <mask id="mask-35" fill="white">
                                                <use xlink:href="#path-34"></use>
                                            </mask>
                                            <use id="Mask" fill="#9AC6FF" xlink:href="#path-34"></use>
                                            <line x1="3.54229286" y1="7.10070939" x2="21.2881975" y2="7.10070939" id="Path-59" stroke="#5496ED" stroke-width="0.919987238" mask="url(#mask-35)"></line>
                                            <line x1="12.7522543" y1="7.10070939" x2="12.7522543" y2="47.8599544" id="Path-60" stroke="#5496ED" stroke-width="0.919987238" mask="url(#mask-35)"></line>
                                        </g>
                                    </g>
                                </g>
                                <rect id="Rectangle-2-Copy-11" stroke="#6895D2" stroke-width="1.7663755" fill="#EAF4FD" x="0.659793814" y="92.765066" width="447.340206" height="6.60766962"></rect>
                                <rect id="Rectangle-2-Copy-10" stroke="#6895D2" stroke-width="1.7663755" fill="#EAF4FD" x="0.659793814" y="216.989255" width="447.340206" height="6.60766962"></rect>
                            </g>
                        </g>
                        <rect id="Rectangle" fill="#9AC6FF" mask="url(#mask-2)" x="-35" y="409" width="555" height="111"></rect>
                        <polygon id="Path-258" fill="#7FB7FF" mask="url(#mask-2)" points="318.30992 446.414656 347 470.259031 245.769269 470.289786 284.217482 519.358142 201.93295 524 171 486.202012 236.348068 437"></polygon>
                        <polygon id="Path-263" fill="#67A9FF" mask="url(#mask-2)" points="197 497 216.587003 524 259 522.01485 242.386958 497"></polygon>
                        <path d="M354.59975,416 L353.826437,415.321765 C341.657416,404.648912 332.261017,391.181625 326.444313,376.076631 L316,348.95452 L316,348.95452 L326.071115,229 C345.868775,241.333058 357.709243,263.179899 357.23474,286.499987 L354.59975,416 L354.59975,416 Z" id="Path-243" fill="#4EDFBF" mask="url(#mask-2)"></path>
                        <path d="M325.590596,307 L340.712475,355.323334 L340.712475,391.358041 C353.903273,409.001913 367.287874,418.263191 380.866277,419.141875 C394.444681,420.020559 404.489255,416.395987 411,408.268159 C402.32761,425.090343 388.092709,430.582119 368.295298,424.743486 C348.497887,418.904853 331.732787,395.764802 318,355.323334 L325.590596,307 Z" id="Path-265" fill="#39BEB3" mask="url(#mask-2)"></path>
                        <polygon id="Path-240" fill="#4EDFBF" mask="url(#mask-2)" points="183.436882 190 98.1180236 221.336623 68 408 310.967863 408 312.42822 391.058446 337 233.117443 290.049485 208.83834"></polygon>
                        <path d="M137.589981,321 L197,321 L194.728706,359.522421 C194.345653,366.019215 191.352569,372.085265 186.429653,376.34202 C181.46297,380.63662 175.116403,383 168.550466,383 L162.099639,383 C155.239987,383 148.587311,380.650256 143.24934,376.34202 C138.068453,372.160566 135.20948,365.746439 135.563172,359.098052 L137.589981,321 L137.589981,321 Z" id="Path-264" stroke="#FFFFFF" mask="url(#mask-2)"></path>
                        <line x1="137" y1="334.5" x2="196" y2="334.5" id="Path-267" stroke="#FFFFFF" mask="url(#mask-2)"></line>
                        <path d="M119,297 L114.403009,372 L88,363.017177 L105.194982,335.005806 C111.721359,324.374056 116.200787,312.615005 118.402035,300.335664 L119,297 L119,297 Z" id="Path-266" fill="#39BEB3" mask="url(#mask-2)"></path>
                        <ellipse id="Oval" fill="#37726D" mask="url(#mask-2)" cx="208.5" cy="190.5" rx="18.5" ry="20.5"></ellipse>
                        <g id="Path" mask="url(#mask-2)">
                            <g transform="translate(193.000000, 171.000000)">
                                <mask id="mask-37" fill="white">
                                    <use xlink:href="#path-36"></use>
                                </mask>
                                <use id="Mask" stroke="none" fill="#F9946B" fill-rule="evenodd" xlink:href="#path-36"></use>
                                <path d="M-3.95918367,-16.5562914 C1.94635616,34.6469242 19.7852695,67.287947 49.5575565,81.3667769 C79.3298434,95.4456069 91.3380271,79.1250955 85.5821077,32.4052428 L-3.95918367,-16.5562914 Z" id="Path" stroke="none" fill="#ED7763" fill-rule="evenodd" mask="url(#mask-37)"></path>
                            </g>
                        </g>
                        <path d="M96,392 C101.049034,379.893881 110.064716,374.253561 123.047047,375.079041 C136.029377,375.904521 143.013695,378.711507 144,383.5 L96,392 Z" id="Path-47" fill="#2FAFA4" mask="url(#mask-2)"></path>
                        <path d="M313.386142,138.842741 L314.696332,125.475316 C315.550168,116.763915 314.079575,107.981854 310.434376,100.023835 C306.87265,92.2480514 300.350175,86.218838 292.318863,83.2783053 L274.492887,76.7516174 C257.785091,70.634333 239.14908,72.9898975 224.48887,83.0720518 C209.689574,93.2498578 200.210058,109.506181 198.640733,127.398751 L197,146.105461 L197,146.105461 L215.8027,177 L313.386142,138.842741 Z" id="Path-237" fill="#142832" mask="url(#mask-2)"></path>
                        <path d="M201.124399,171.391655 L200.407022,172.372563 C195.772249,178.70994 193.806593,186.611724 194.931933,194.381992 L199.130479,223.372174 C200.405431,232.175489 205.180309,240.091296 212.372697,245.325168 L217.862414,249.320012 C223.812882,253.650142 228.097325,259.890997 230,267 L230,267 L230,267 L221.050063,256.012534 C215.350405,257.435118 209.363525,255.198066 205.993333,250.38645 L196.715026,237.139828 L196.715026,237.139828 C187.691698,246.135209 175.470201,251.186419 162.729034,251.186419 L157,251.186419 L157,251.186419 L175.893012,204.076918 C180.344759,192.976538 186.751654,182.764749 194.809301,173.926716 L201.124399,167 L201.124399,167 L201.124399,171.391655 Z" id="Path-238" fill="#2FAFA4" mask="url(#mask-2)"></path>
                        <path d="M281,240 L278.084941,276 L271.524343,245.681893 L253.16673,263.296608 L225,276 L233.672382,263.062993 C236.629062,258.652371 240.524831,254.950426 245.08047,252.222481 L265.491886,240 L265.491886,240 L281,240 Z" id="Path-239" fill="#2FAFA4" mask="url(#mask-2)"></path>
                        <line x1="320.106418" y1="164.564491" x2="299.658295" y2="156.118356" id="Path-15" stroke="#142832" stroke-width="2" mask="url(#mask-2)"></line>
                        <path d="M310.973945,111.973877 L314.263646,125.908557 C316.069255,133.556845 316.470812,141.469475 315.448769,149.261264 L313.987279,160.403283 C313.931065,160.831848 313.877629,161.260772 313.826977,161.69003 L312.361763,174.107013 C311.339614,182.769241 309.077039,191.239452 305.643517,199.25755 L296.654912,220.248096 C293.078827,228.599114 287.64957,236.027035 280.778216,241.969458 L278.873235,243.616907 C273.366499,248.379193 266.32944,251 259.049089,251 C251.800383,251 244.826198,248.227431 239.556025,243.250582 L221.445986,226.148501 C208.884702,214.286346 203.389132,196.749494 206.934186,179.840053 L206.934186,179.840053 L206.934186,179.840053 L206.704404,179.756401 C199.168727,177.013042 193.523231,170.656451 191.688884,162.849556 L190.85755,159.311442 C189.479518,153.446601 189.767452,147.313397 191.688884,141.603455 L193.575971,135.995575 C194.204849,134.126729 195.956575,132.86795 197.928394,132.86795 C200.001169,132.86795 201.948267,133.861781 203.164241,135.540412 L205.486502,138.746256 C208.254382,142.567269 209.744652,147.164909 209.744652,151.883098 L209.744652,161.571063 L209.744652,161.571063 C210.969783,163.667386 213.662354,164.373627 215.758677,163.148495 C216.713041,162.590747 217.422277,161.693957 217.745112,160.636758 L224.81755,137.47639 L224.81755,137.47639 L223.589566,131.340933 C221.472392,120.76275 226.746939,110.085728 236.434633,105.339258 C246.649414,100.334544 258.729359,100.987926 268.344734,107.065217 L279.46375,114.092868 C283.359883,116.555376 287.874481,117.862481 292.48358,117.862481 C297.12021,117.862481 301.689776,116.754989 305.811918,114.63219 L310.973945,111.973877 L310.973945,111.973877 Z" id="Path-236" fill="#F9946B" mask="url(#mask-2)"></path>
                        <ellipse id="Oval" fill="#2FAFA4" mask="url(#mask-2)" cx="360" cy="247" rx="24" ry="10"></ellipse>
                        <path d="M337,251.396161 L339.997407,253.090371 C354.632649,261.362578 373.042714,258.420901 384.371479,246 L384.371479,246 L384.371479,246 L394.861011,288.112259 L412.424701,355.509401 C415.226385,366.260302 416.216938,377.40293 415.35566,388.47946 L414.586271,398.374251 C413.417772,413.401823 400.882745,425 385.809812,425 L375.972999,425 C363.833351,425 352.961832,417.483988 348.673942,406.126829 L347.385195,402.713375 C343.520197,392.476312 341.361594,381.674297 340.995459,370.738045 L337,251.396161 L337,251.396161 Z" id="Path-242" fill="#4EDFBF" mask="url(#mask-2)"></path>
                        <line x1="319" y1="355" x2="326" y2="307" id="Path-252" stroke="#1A5986" stroke-linejoin="round" mask="url(#mask-2)"></line>
                        <path d="M349,256.16264 C345.881898,255.156178 343.314639,253.999952 341.298224,252.693962 C339.281809,251.387973 337.849068,249.823318 337,248 L340.977122,381" id="Path-259" stroke="#1A5986" stroke-linejoin="round" mask="url(#mask-2)"></path>
                        <g id="Rectangle-+-Path-270-Mask" mask="url(#mask-2)">
                            <g transform="translate(301.000000, 121.000000)">
                                <mask id="mask-39" fill="white">
                                    <use xlink:href="#path-38"></use>
                                </mask>
                                <use id="Mask" stroke="none" fill="#F9946B" fill-rule="evenodd" xlink:href="#path-38"></use>
                                <path d="M-9.60898711,71.6396938 L10.1328876,71.6328151 C18.6916266,86.8502361 25.1599853,97.0697255 29.5379637,102.291283 C33.9159421,107.512841 38.8715918,110.918618 44.4049128,112.508614 L-9.61953445,101.870895 L-9.60898711,71.6396938 Z" id="Rectangle" stroke="none" fill="#ED7763" fill-rule="evenodd" mask="url(#mask-39)" transform="translate(17.392689, 92.070715) rotate(14.000000) translate(-17.392689, -92.070715) "></path>
                                <path d="M26.5839196,67.511736 C26.9791926,73.2115528 26.4036091,77.7713661 24.8571692,81.1911757" id="Path-270" stroke="#CC5829" stroke-width="1" fill="none" stroke-linecap="round" mask="url(#mask-39)"></path>
                            </g>
                        </g>
                        <ellipse id="Oval" stroke="#142832" stroke-width="2" mask="url(#mask-2)" transform="translate(257.741181, 165.965926) rotate(-345.000000) translate(-257.741181, -165.965926) " cx="257.741181" cy="165.965926" rx="21" ry="24"></ellipse>
                        <ellipse id="Oval-Copy-20" stroke="#142832" stroke-width="2" mask="url(#mask-2)" transform="translate(303.034074, 172.741181) rotate(-345.000000) translate(-303.034074, -172.741181) " cx="303.034074" cy="172.741181" rx="17" ry="23"></ellipse>
                        <path d="M350,165.016454 L339.508654,153.695224 C328.50303,144.55095 321.444764,138.972746 318.333857,136.960611 C313.667496,133.942409 311.590613,134.784183 311.152899,136.960611 C310.715186,139.137039 310.715186,144.983476 318.333857,151.814691 C323.412971,156.368835 327.979143,161.314602 332.032372,166.651991 L339.508654,187" id="Path-245" stroke="#CC5829" stroke-linecap="round" mask="url(#mask-2)"></path>
                        <path d="M314,135 C311.333333,130.556855 310.444444,126.556855 311.333333,123" id="Path-246" stroke="#CC5829" stroke-linecap="round" mask="url(#mask-2)"></path>
                        <g id="Path-2" mask="url(#mask-2)">
                            <g transform="translate(88.000000, 375.000000)">
                                <mask id="mask-41" fill="white">
                                    <use xlink:href="#path-40"></use>
                                </mask>
                                <use id="Mask" stroke="none" fill="#F9946B" fill-rule="evenodd" xlink:href="#path-40"></use>
                                <path d="M31.0471311,40.0566829 L31.0471311,32.6370886 C31.0471311,27.5790359 29.130653,22.7088392 25.6836261,19.0072311 L23.1771904,16.3156818 L23.1771904,16.3156818" id="Path-253" stroke="#CC5829" stroke-width="1" fill="none" stroke-linecap="round" mask="url(#mask-41)"></path>
                                <path d="M11.4573956,23.7423299 L16.7514345,40.857351" id="Path-254" stroke="#CC5829" stroke-width="1" fill="none" stroke-linecap="round" mask="url(#mask-41)"></path>
                                <path d="M45.9657255,39.0773165 L46.4721281,30.4183061 C46.8478367,23.9940398 44.3918989,17.7273604 39.7512531,13.2690243 L37.0529594,10.6767342 L37.0529594,10.6767342" id="Path-269" stroke="#CC5829" stroke-width="1" fill="none" stroke-linecap="round" mask="url(#mask-41)"></path>
                                <path d="M90.3509902,37.5997878 C93.6975923,35.0305072 94.3787913,26.92218 91.931451,21.8675773 C90.2998909,18.4978422 84.833772,17.9998836 75.5330944,20.3737016 C75.6796971,25.6367721 75.8001207,29.264593 75.8943653,31.2571645 C76.1471283,36.6012236 76.4111077,39.9318291 74.9880544,42.1406274 C71.6596338,47.3068497 87.0043881,40.1690684 90.3509902,37.5997878 Z" id="Path-2" stroke="none" fill="#ED7763" fill-rule="evenodd" mask="url(#mask-41)"></path>
                            </g>
                        </g>
                        <path d="M104.656379,219 C81.9799346,227.496549 63.2002555,244.003609 51.8650445,265.402801 L2.4670997,358.658774 C-3.63864882,370.18552 -5.49715404,383.492106 -2.78328776,396.25067 C-0.333819972,407.76623 9.83555937,416 21.6087502,416 L104.656379,416 L104.656379,416 C94.6688812,408.889544 92.3365781,395.028915 99.4470338,385.041417 C101.841645,381.677896 105.126857,379.048861 108.933475,377.449767 L115,374.901326 L115,374.901326 L85.9127056,363.85662 L113.05416,319.760263 L104.656379,219 Z" id="Path-247" fill="#4EDFBF" mask="url(#mask-2)"></path>
                        <path d="M228,273 C221.979504,277.803869 218.017421,292.742238 216.113751,317.815107 C214.21008,342.887975 214.746786,372.949606 217.723867,408" id="Path-249" stroke="#1A5986" stroke-linejoin="round" mask="url(#mask-2)"></path>
                        <path d="M150,407 L148.933354,395.746057 C148.669913,392.966543 147.518621,390.345689 145.649861,388.27136 L140,382 L140,382" id="Path-3" stroke="#CC5829" stroke-linecap="round" mask="url(#mask-2)"></path>
                        <path d="M101.459885,248 C119.531192,274.623166 120.467591,309.325705 103.85831,336.884678 L88,363.197602 L88,363.197602 L123,375" id="Path-248" stroke="#1A5986" stroke-linejoin="round" mask="url(#mask-2)"></path>
                        <path d="M89,363.280667 L83.668539,362.008787 C65.8440046,357.756544 47.193743,358.483816 29.7544662,364.11118 L27,365 L27,365" id="Path-250" stroke="#1A5986" stroke-linejoin="round" mask="url(#mask-2)"></path>
                        <g id="Group-2" mask="url(#mask-2)">
                            <g transform="translate(214.000000, 375.000000)">
                                <g id="Path-53" stroke="none" stroke-width="1" fill="none" fill-rule="evenodd" transform="translate(16.499345, 19.488944)">
                                    <mask id="mask-43" fill="white">
                                        <use xlink:href="#path-42"></use>
                                    </mask>
                                    <use id="Mask" fill="#054A60" xlink:href="#path-42"></use>
                                    <polygon stroke="#0448A2" stroke-width="0.919987238" fill="#FFFFFF" mask="url(#mask-43)" points="8.73373627 52.8440367 65.9973811 -3.77201813 -13.5510764 -33.6880734 -62.0375382 52.8440367"></polygon>
                                </g>
                                <polygon id="Path-241" stroke="none" fill="#65A1ED" fill-rule="evenodd" points="16.4993453 71.6724301 0.33838841 45.580687 0.33838841 -7.95723822e-15 16.4993453 19.4889439"></polygon>
                                <polygon id="Path-255" stroke="none" fill="#FFFFFF" fill-rule="evenodd" points="0.33838841 0 82.4967263 0 104.275862 19.4889439 16.4993453 19.4889439"></polygon>
                                <line x1="16.4993453" y1="19.7763064" x2="78.3082302" y2="19.7763064" id="Path-256" stroke="#1A5986" stroke-width="1" fill="none" stroke-linejoin="round"></line>
                                <line x1="44.1039187" y1="0" x2="60.3387503" y2="19.4889439" id="Path-257" stroke="#1A5986" stroke-width="1" fill="none" stroke-linejoin="round"></line>
                            </g>
                        </g>
                        <g id="Group-2-Copy" mask="url(#mask-2)">
                            <g transform="translate(155.000000, 415.000000)">
                                <g id="Path-53" stroke="none" stroke-width="1" fill="none" fill-rule="evenodd" transform="translate(16.499345, 19.488944)">
                                    <mask id="mask-45" fill="white">
                                        <use xlink:href="#path-44"></use>
                                    </mask>
                                    <use id="Mask" fill="#FFFFFF" xlink:href="#path-44"></use>
                                    <rect id="Rectangle" fill="#9AC6FF" mask="url(#mask-45)" x="41.5783501" y="8.58715596" width="38.9384548" height="13.2110092"></rect>
                                </g>
                                <polygon id="Path-241" stroke="none" fill="#65A1ED" fill-rule="evenodd" points="16.4993453 71.6724301 0.33838841 45.580687 0.33838841 -7.95723822e-15 16.4993453 19.4889439"></polygon>
                                <polygon id="Path-255" stroke="none" fill="#FFFFFF" fill-rule="evenodd" points="0.33838841 0 82.4967263 0 104.275862 19.4889439 16.4993453 19.4889439"></polygon>
                                <line x1="16.4993453" y1="19.7763064" x2="78.3082302" y2="19.7763064" id="Path-256" stroke="#1A5986" stroke-width="1" fill="none" stroke-linejoin="round"></line>
                                <line x1="44.1039187" y1="0" x2="60.3387503" y2="19.4889439" id="Path-257" stroke="#1A5986" stroke-width="1" fill="none" stroke-linejoin="round"></line>
                            </g>
                        </g>
                        <g id="Group-2-Copy-2" mask="url(#mask-2)">
                            <g transform="translate(33.000000, 425.000000)">
                                <g id="Path-53" stroke="none" stroke-width="1" fill="none" fill-rule="evenodd" transform="translate(16.509434, 19.488944)">
                                    <mask id="mask-47" fill="white">
                                        <use xlink:href="#path-46"></use>
                                    </mask>
                                    <use id="Mask" fill="#FFFFFF" xlink:href="#path-46"></use>
                                </g>
                                <polygon id="Path-241" stroke="none" fill="#65A1ED" fill-rule="evenodd" points="16.509434 71.6724301 0.338595322 45.580687 0.338595322 -7.95723822e-15 16.509434 19.4889439"></polygon>
                                <polygon id="Path-255" stroke="none" fill="#FFFFFF" fill-rule="evenodd" points="0.338595322 0 82.5471698 0 104.339623 19.4889439 16.509434 19.4889439"></polygon>
                                <line x1="22.4833649" y1="8.58715596" x2="91.5357364" y2="8.58715596" id="Path-260" stroke="#1A5986" stroke-width="1" fill="none" stroke-linejoin="round"></line>
                                <line x1="16.509434" y1="19.7763064" x2="104.771207" y2="19.7763064" id="Path-256" stroke="#1A5986" stroke-width="1" fill="none" stroke-linejoin="round"></line>
                            </g>
                        </g>
                        <g id="Group-3" mask="url(#mask-2)">
                            <g transform="translate(301.000000, 380.000000)">
                                <rect id="Rectangle" stroke="none" fill="#054A60" fill-rule="evenodd" x="15.8241758" y="12.5535714" width="44.1758242" height="98.4464286"></rect>
                                <rect id="Rectangle" stroke="#0448A2" stroke-width="0.919987238" fill="#FFFFFF" fill-rule="evenodd" x="24.3956044" y="23.125" width="28.3516484" height="29.7321429"></rect>
                                <polygon id="Path-241" stroke="none" fill="#65A1ED" fill-rule="evenodd" points="16.1454527 110.672349 0 91.1812775 0 -6.22034386e-14 16.1454527 12.8866346"></polygon>
                                <polygon id="Path-261" stroke="none" fill="#FFFFFF" fill-rule="evenodd" points="15.8241758 12.5535714 60 12.5535714 45.778998 0.69531816 0 -1.85159427e-14"></polygon>
                                <line x1="26.203349" y1="0.278474209" x2="39.5579802" y2="12.5535714" id="Path-4" stroke="#1A5986" stroke-width="1" fill="none" stroke-linejoin="round"></line>
                            </g>
                        </g>
                        <g id="Group-4" mask="url(#mask-2)">
                            <g transform="translate(197.000000, 415.000000)">
                                <g id="Path-262" stroke-width="1" fill="none" transform="translate(0.000000, 9.293728)">
                                    <g transform="translate(-0.000000, 0.000000)">
                                        <mask id="mask-49" fill="white">
                                            <use xlink:href="#path-48"></use>
                                        </mask>
                                        <use id="Mask" fill="#DCEAFB" xlink:href="#path-48"></use>
                                        <path d="M-2.08569042,46.2529669 C6.00843322,50.5251149 17.3030596,51.9491642 31.7981887,50.5251149 L31.7981887,76.7621315 C17.1780914,79.0925876 5.48345711,77.2660076 -3.28571429,71.2823915 L-2.08569042,46.2529669 Z" fill="#054A60" mask="url(#mask-49)"></path>
                                        <path d="M-2.4765359,51.1155013 C6.51817596,54.8812695 15.0139879,56.3056301 23.0108999,55.388583 L23.0108999,73.1010848 C12.1295461,74.0844765 3.36400803,72.1510113 -3.28571429,67.3006895 L-2.4765359,51.1155013 Z" id="Path-262-Copy" stroke="#FFFFFF" mask="url(#mask-49)"></path>
                                    </g>
                                    <path d="M32.2613712,5.68434189e-14 L32.2613712,10.2814801 C32.2613712,15.3783895 33.5523403,20.3905345 36.0114612,24.8410813 L42.3536852,36.319315 C44.3209819,39.8797524 45.3537571,43.8894684 45.3537571,47.966996 L45.3537571,73.945009 C45.3537571,78.8944793 35.2034128,82.9068177 22.6823285,82.9068177 C10.1612443,82.9068177 0.0108999496,78.8944793 0.0108999496,73.945009 L0.0108999496,73.945009" id="Path" stroke="#1A5986" stroke-linejoin="round"></path>
                                </g>
                                <g id="Path-268" stroke-width="1" fill="none" transform="translate(12.496614, 3.983026)">
                                    <mask id="mask-51" fill="white">
                                        <use xlink:href="#path-50"></use>
                                    </mask>
                                    <use id="Mask" fill="#65A1ED" xlink:href="#path-50"></use>
                                    <line x1="3.28571429" y1="0.993037699" x2="3.28571429" y2="13.2767536" stroke="#FFFFFF" mask="url(#mask-51)"></line>
                                    <line x1="6.57142857" y1="0.993037699" x2="6.57142857" y2="13.2767536" id="Path-268-Copy" stroke="#FFFFFF" mask="url(#mask-51)"></line>
                                    <line x1="11.1714286" y1="0.993037699" x2="11.1714286" y2="13.2767536" id="Path-268-Copy-2" stroke="#FFFFFF" mask="url(#mask-51)"></line>
                                    <line x1="15.7714286" y1="0.993037699" x2="15.7714286" y2="13.2767536" id="Path-268-Copy-3" stroke="#FFFFFF" mask="url(#mask-51)"></line>
                                </g>
                                <ellipse id="Oval" fill="#054A60" cx="23.0108999" cy="3.98302608" rx="10.5142857" ry="3.98302608"></ellipse>
                            </g>
                        </g>
                        <path d="M277.633358,154.443709 C280.5787,153.793591 283.325037,153.793591 285.872369,154.443709 C288.419701,155.093826 290.317958,156.372787 291.567139,158.280591" id="Path-12" stroke="#142832" stroke-width="2" mask="url(#mask-2)"></path>
                        <line x1="241.832715" y1="151.124963" x2="214.5" y2="142.439672" id="Path-13" stroke="#142832" stroke-width="2" mask="url(#mask-2)"></line>
                    </g>
                    <g id="Polygon-Copy-6" transform="translate(75.000000, 110.000000) rotate(180.000000) translate(-75.000000, -110.000000) ">
                        <use fill="black" fill-opacity="1" filter="url(#filter-53)" xlink:href="#path-52"></use>
                        <use fill="#FFFFFF" fill-rule="evenodd" xlink:href="#path-52"></use>
                    </g>
                </g>
            </g>
        </g>
    </g>
</svg>