<?xml version="1.0" encoding="UTF-8"?>
<svg width="675px" height="772px" viewBox="0 0 675 772" version="1.1" xmlns="http://www.w3.org/2000/svg" xmlns:xlink="http://www.w3.org/1999/xlink">
    <!-- Generator: Sketch 59.1 (86144) - https://sketch.com -->
    <title>Img_illustration header</title>
    <desc>Created with Sketch.</desc>
    <defs>
        <path d="M434.643267,9.88803494 L782.943258,210.451581 C800.796716,220.732239 811.799978,239.765457 811.799978,260.367349 L811.799978,661.232627 C811.799978,681.834518 800.796716,700.867736 782.943258,711.148394 L434.643267,911.711941 C416.850617,921.957582 394.949361,921.957582 377.156712,911.711941 L28.8567209,711.148394 C11.003262,700.867736 1.45383044e-15,681.834518 0,661.232627 L0,260.367349 C2.58987054e-14,239.765457 11.003262,220.732239 28.8567209,210.451581 L377.156712,9.88803494 C394.949361,-0.35760669 416.850617,-0.35760669 434.643267,9.88803494 Z" id="path-1"></path>
        <linearGradient x1="50%" y1="50%" x2="50%" y2="-12.50155%" id="linearGradient-3">
            <stop stop-color="#E8F3FE" stop-opacity="0" offset="0%"></stop>
            <stop stop-color="#AED1FF" offset="100%"></stop>
        </linearGradient>
        <rect id="path-4" x="0" y="0" width="16.123929" height="54.2548237"></rect>
        <rect id="path-6" x="0" y="0" width="34.4465757" height="28.5937585"></rect>
        <rect id="path-8" x="0" y="0" width="54.235034" height="38.8581846"></rect>
        <rect id="path-10" x="0" y="0" width="62.2969986" height="22.7283721"></rect>
        <polygon id="path-12" points="0 0 30.0491405 0 30.0491405 94.5793549 0 94.5793549"></polygon>
        <rect id="path-14" x="0" y="0" width="28.9449859" height="31.5264516"></rect>
        <rect id="path-16" x="0" y="0" width="41.2466049" height="45.4567442"></rect>
        <rect id="path-18" x="0" y="0" width="36.8491697" height="53.5216505"></rect>
        <rect id="path-20" x="0" y="0" width="19.0555525" height="83.5817555"></rect>
        <rect id="path-22" x="0" y="0" width="45.4401637" height="60.8533834"></rect>
        <polygon id="path-24" points="0.549679399 0.733173294 24.0026671 0.733173294 24.0026671 52.0553039 0.549679399 52.0553039"></polygon>
        <polygon id="path-26" points="0 0 30.7820463 0 30.7820463 72.5841561 0 72.5841561"></polygon>
        <rect id="path-28" x="0" y="0" width="49.8375988" height="78.4495424"></rect>
        <rect id="path-30" x="0" y="0" width="74.7563983" height="43.9903976"></rect>
        <polygon id="path-32" points="0 0 30.0491405 0 30.0491405 72.5841561 0 72.5841561"></polygon>
        <polygon id="path-34" points="0 0 30.0491405 0 30.0491405 72.5841561 0 72.5841561"></polygon>
        <polygon id="path-36" points="0 0 37.3781991 0 37.3781991 74.0505027 0 74.0505027"></polygon>
        <rect id="path-38" x="0" y="0" width="20.5213642" height="37.391838"></rect>
        <rect id="path-40" x="0" y="0" width="26.3846112" height="47.6562641"></rect>
        <rect id="path-42" x="0" y="0" width="26.3846112" height="47.6562641"></rect>
        <path d="M15.5882317,-4.26325641e-14 C24.5871479,4.28252535 31.4876231,12.0016709 34.7386813,21.422453 L76.2941058,141.840047 L76.2941058,141.840047 L84.1738319,145.649054 C97.6874432,152.181443 105.551897,166.583673 103.741668,181.483769 L103.389558,184.382005 C101.608284,199.043773 89.6233378,210.349607 74.8826905,211.273567 L59.3128899,212.249498 C52.8062112,212.657344 46.2849939,211.727044 40.1519133,209.516042 L29.8506746,205.802403 C20.2044782,202.324908 13.3606059,193.68342 12.1853651,183.497111 L4.26325641e-14,77.8814021 L4.26325641e-14,77.8814021 L15.5882317,-4.26325641e-14 Z" id="path-44"></path>
        <linearGradient x1="30.9673245%" y1="73.9801145%" x2="50%" y2="50%" id="linearGradient-46">
            <stop stop-color="#DCEAFB" offset="0%"></stop>
            <stop stop-color="#BED7F7" stop-opacity="0" offset="100%"></stop>
        </linearGradient>
        <linearGradient x1="65.0723787%" y1="51.1846999%" x2="82.6810794%" y2="64.0742301%" id="linearGradient-47">
            <stop stop-color="#DCEAFB" offset="0%"></stop>
            <stop stop-color="#BED7F7" stop-opacity="0" offset="100%"></stop>
        </linearGradient>
        <path d="M69.4803025,24.1545924 C65.7725588,38.9503394 62.2865637,48.8213622 59.0223173,53.7676608 C55.7580709,58.7139593 45.2562012,67.2794902 27.5167084,79.4642535 C17.0520369,60.1253449 10.3327751,46.7299117 7.3589228,39.277954 C4.38507054,31.8259963 2.13897039,18.840697 0.620622358,0.322056133 L69.4803025,24.1545924 Z" id="path-48"></path>
        <path d="M6.7229259,14.9246066 L30.6966262,8.79999588 L69.6630654,1.41666659 C74.1827755,0.560275593 78.8578577,1.169193 83.0074135,3.15473355 L93.5717259,8.20970122 C98.0141484,10.3353769 101.851608,13.5426613 104.732004,17.5372744 L104.793517,17.6225818 C107.639356,21.5692706 109.51966,26.1285264 110.283315,30.9339383 L110.80488,34.2159576 C111.180545,36.5798861 109.892484,38.8945371 107.685597,39.8213228 C105.59931,40.6974622 103.195848,39.7391473 102.284756,37.6678853 L98.766073,29.668561 L98.766073,29.668561 L91.3603832,21.4135906 L81.7555231,16.1359514 L92.4713809,27.9042396 C94.0920752,29.6841061 94.8191006,32.102419 94.4485503,34.4809201 L94.3343595,35.2138919 C94.0353441,37.1332215 92.9000567,38.8209117 91.235,39.8213228 C89.616614,40.7936928 87.5950844,40.7992048 85.9714199,39.8356746 L84.6441854,39.0480547 L84.6441854,39.0480547 L84.5551109,39.249314 C83.6194801,41.3633232 81.9534689,43.0694334 79.8623062,44.0550694 C77.8636433,44.9971071 75.5100534,44.7722854 73.7258798,43.4689002 L73.6261668,43.3960572 L73.6261668,43.3960572 C73.6261668,45.6203526 72.398329,47.6629734 70.4340118,48.7065 L69.3545883,49.2799345 C67.8126758,50.0990622 65.9819904,50.1727715 64.3792145,49.4802591 C62.7050876,48.7569179 61.1899874,47.7106266 59.9205753,46.4012312 L54.1458221,40.4445878 L54.1458221,40.4445878 L46.7818275,42.5253047 C41.4522754,44.0311842 35.7645902,43.633279 30.6966262,41.3999989 L30.6966262,41.3999989 L30.6966262,41.3999989 L8.15351435,56.4913266 C5.25392233,54.0704844 2.94991968,47.9875911 1.24150642,38.2426466 C-0.466906847,28.4977022 1.36023298,20.7250222 6.7229259,14.9246066 Z" id="path-50"></path>
        <path d="M28.0745316,78.4828622 L38.3684988,78.4828622 C40.9473855,78.4828622 43.4023721,77.3765796 45.1106817,75.4446545 L48.1701996,71.9846497 L48.1701996,71.9846497 L50.4349846,71.4116048 C53.8411589,70.5497611 56.4343769,67.7845409 57.0759999,64.3301064 L57.4179546,62.4890559 L57.4179546,62.4890559 L58.9301382,61.9278477 C62.4578396,60.6186317 64.798715,57.2529909 64.798715,53.490183 L64.798715,51.3795681 L64.798715,51.3795681 L66.8245303,51.3795681 C69.4084049,51.3795681 71.6874722,49.6875494 72.435086,47.2141952 L72.5276668,46.9079074 C73.2799639,44.4190595 73.1091336,41.7423542 72.0465467,39.3693342 L69.2464283,33.1159758 C66.3143775,26.5679795 64.798715,19.4744309 64.798715,12.2999499 L64.798715,4.38769665 C64.798715,1.9644387 62.8342763,6.66028209e-15 60.4110183,7.10542736e-15 C57.8885482,7.5687976e-15 55.7451578,1.84436844 55.3689784,4.33863075 L53.7853881,14.838645 C53.1713791,18.9098393 53.2603023,23.0561928 54.0482892,27.0973197 L55.3765137,33.9090109 L55.3765137,33.9090109 L41.4839542,12.463509 C40.4727998,10.9026221 38.3877484,10.4569759 36.8268616,11.4681303 C36.699762,11.5504663 36.5783614,11.6412823 36.4634864,11.7399598 C34.6665876,13.2834941 33.8785981,15.6991142 34.4196909,18.0053149 L35.4627747,22.4510607 C35.9843916,24.674253 36.7273625,26.8396131 37.6805639,28.9147216 L42.424139,39.2414311 L42.424139,39.2414311 L44.7585002,48.1351307 L33.5390749,33.9090109 L24.2134635,25.1558562 C22.9520938,23.9719163 21.0841461,23.7051491 19.5417958,24.4886813 C18.1164405,25.2127787 17.5365643,26.9471641 18.2397879,28.3829327 L22.1117201,36.2882404 L22.1117201,36.2882404 L33.5390749,54.8490862 L20.2240002,43.0488222 L14.2258913,36.7080327 C12.6819165,35.0758485 10.206934,34.7454498 8.28887806,35.9154689 C6.470817,37.024491 5.89302896,39.3955742 6.99707848,41.2166591 L13.1584355,51.3795681 L13.1584355,51.3795681 L4.99961678,62.4890559 C-1.40331731,71.8332663 -0.466653599,78.898831 7.80960791,83.6857498 C16.0858694,88.4726687 22.840844,86.7383728 28.0745316,78.4828622 Z" id="path-52"></path>
        <linearGradient x1="57.3249473%" y1="35.5595575%" x2="22.7097454%" y2="113.206709%" id="linearGradient-54">
            <stop stop-color="#37AFA4" offset="0%"></stop>
            <stop stop-color="#368981" offset="100%"></stop>
        </linearGradient>
        <path d="M183.63197,55.3168598 L191.759663,71.0719221 C192.671199,72.8388806 191.977741,75.0102288 190.210783,75.9217642 C190.040202,76.0097633 189.862856,76.0839792 189.680441,76.143702 L181.622261,78.7819638 L181.622261,78.7819638 L182.335466,86.3990452 C182.539835,88.581719 181.59488,90.7136986 179.840469,92.0281841 L177.812282,93.5477948 L177.812282,93.5477948 L179.026814,96.8392405 C179.931313,99.2904825 179.228907,102.045641 177.261236,103.764646 L175.970028,104.892676 L175.970028,104.892676 L174.639988,114.273138 C173.993638,118.831699 170.011058,122.167366 165.409801,122.004014 L149.543656,121.440741 C135.209835,120.931868 122.135162,129.583112 116.999075,142.974825 L111.228715,158.02033 C107.833149,166.873851 107.510831,176.611518 110.3135,185.670201 L121.391027,221.474565 L121.391027,221.474565 L95.7049588,173.002415 C90.0278348,162.289121 80.0264645,154.526974 68.2394242,151.686183 L46.0270114,146.332778 C36.9635029,144.148385 27.4322313,145.019492 18.9148593,148.810684 L0,157.229931 L0,157.229931 L20.3074445,140.86621 C24.6524819,137.364983 29.6473301,134.758057 35.0042593,133.195607 L42.8381656,130.910699 C53.2549019,127.872459 62.5909754,121.9305 69.7540366,113.78005 L89.5549562,91.2496792 L89.5549562,91.2496792 L103.637088,72.2653405 L98.3669293,67.7030842 C93.8249566,63.7712017 91.2151467,58.0600894 91.2151467,52.0526593 L91.2151467,39.5791121 C91.2151467,36.6102408 92.5573331,33.800508 94.8667579,31.93483 C97.0849731,30.1428359 100.15369,29.8341286 102.684389,31.1483906 L112.792776,36.3979552 L112.792776,36.3979552 L143.497671,-1.70530257e-13 L181.622261,17.622857 L180.113932,38.0801248 C179.674491,44.0402009 180.892056,50.005694 183.63197,55.3168598 Z" id="path-55"></path>
        <path d="M14.5166458,4.38646263 C28.8330475,-3.86982924 47.1086807,0.549220275 56.0712787,14.4343761 L127.766079,125.506353 L127.766079,125.506353 L330.505769,90.6829643 L391.870942,83.5232852 C394.060135,83.2678648 396.083701,84.7215463 396.540446,86.877744 C396.991691,89.0079841 395.690304,91.1170874 393.583953,91.6692052 L344.655947,104.494245 L344.655947,104.494245 L355.327013,113.384559 C357.236456,114.975361 357.494766,117.81287 355.903965,119.722313 C355.348335,120.389236 354.611672,120.881222 353.78277,121.138966 L348.574046,122.758606 L348.574046,122.758606 C349.359828,127.185888 346.439933,131.422134 342.022829,132.263251 L337.725825,133.081498 L337.725825,133.081498 C338.366007,138.160276 334.767814,142.796409 329.689036,143.436591 C329.636643,143.443195 329.584194,143.449352 329.531696,143.455059 L326.515723,143.782963 L326.515723,143.782963 L312.073007,143.782963 L275.370033,135.682963 L143.465031,180.535621 C118.762064,188.935558 91.5156592,179.392652 77.4522752,157.41501 L4.86163502,43.9735326 C-3.52410411,30.8686662 0.301504388,13.4470883 13.4063708,5.06134916 C13.7712246,4.82788099 14.1414147,4.60285898 14.5166458,4.38646263 Z" id="path-57"></path>
        <rect id="path-59" x="0" y="0" width="78.998863" height="46.9651364"></rect>
        <path d="M9,0 L31.8085706,0 L31.8085706,3.57784971 C31.8085706,7.15615664 33.4713876,10.5312925 36.3085705,12.7118139 C39.1457534,14.8923353 40.8085703,18.2674712 40.8085703,21.8457781 L40.8085703,57.5505066 L40.8085703,57.5505066 C40.8085703,62.0050297 31.6732607,65.6161342 20.4042852,65.6161342 C9.13530964,65.6161342 0,62.0050297 0,57.5505066 L0,21.8457782 C-4.38216219e-16,18.2674712 1.66281704,14.8923353 4.5,12.7118139 C7.33718296,10.5312925 9,7.1561566 9,3.57784961 L9,0 L9,0 Z" id="path-61"></path>
        <path d="M9,0 L31.8085706,0 L31.8085706,3.57784971 C31.8085706,7.15615664 33.4713876,10.5312925 36.3085705,12.7118139 C39.1457534,14.8923353 40.8085703,18.2674712 40.8085703,21.8457781 L40.8085703,57.5505066 L40.8085703,57.5505066 C40.8085703,62.0050297 31.6732607,65.6161342 20.4042852,65.6161342 C9.13530964,65.6161342 0,62.0050297 0,57.5505066 L0,21.8457782 C-4.38216219e-16,18.2674712 1.66281704,14.8923353 4.5,12.7118139 C7.33718296,10.5312925 9,7.1561566 9,3.57784961 L9,0 L9,0 Z" id="path-63"></path>
        <path d="M13.4415581,11.9490779 C20.8651256,11.9490779 26.8831162,10.3441426 26.8831162,8.36435454 C26.8831162,7.70712188 26.8831162,4.9190037 26.8831162,0 L0,0 C0,5.00268463 0,7.79080281 0,8.36435454 C0,10.3441426 6.01799054,11.9490779 13.4415581,11.9490779 Z" id="path-65"></path>
    </defs>
    <g id="Design" stroke="none" stroke-width="1" fill="none" fill-rule="evenodd">
        <g id="Homepage_V6">
            <g id="HERO">
                <g id="Img_illustration-header" transform="translate(-137.000000, -148.000000)">
                    <mask id="mask-2" fill="white">
                        <use xlink:href="#path-1"></use>
                    </mask>
                    <use id="Mask" fill="#F4FAFA" transform="translate(405.899989, 460.799988) rotate(180.000000) translate(-405.899989, -460.799988) " xlink:href="#path-1"></use>
                    <rect id="Rectangle" fill="#CFE5FC" mask="url(#mask-2)" x="246.599993" y="822.099978" width="480.599987" height="122.399997"></rect>
                    <path d="M313.508205,653.08621 C351.302483,704.78507 370.199622,730.6345 370.199622,730.6345 C370.199622,730.6345 319.819775,746.364374 319.819775,746.031113 C319.819775,745.808939 317.715918,722.806101 313.508205,677.022599 L313.508205,653.08621 Z" id="Path-226" fill="#ED7763" mask="url(#mask-2)"></path>
                    <path d="M295.438899,609.357053 L310.263607,635.351702 C313.744748,641.45577 316.425843,647.98247 318.240827,654.770976 L328.929711,694.750146 C331.497047,704.352641 330.745116,714.540852 326.79587,723.662397 L323.099991,732.198739 L323.099991,732.198739 L315.507031,840.011564 L155.915668,840.011564 L172.623831,766.326177 C174.206718,759.34542 174.552698,752.141097 173.646039,745.040783 L162.263998,655.904592 C158.361409,625.34224 171.751225,595.140512 197.019507,577.51095 L206.85468,570.648996 L206.85468,570.648996 L261.384177,570.397463 L295.438899,609.357053 Z" id="Path-227" fill="#37AFA4" mask="url(#mask-2)"></path>
                    <polygon id="Path-8" fill="#368981" mask="url(#mask-2)" points="185.399995 650.199983 248.299405 811.069017 303.217613 787.497657"></polygon>
                    <polygon id="Rectangle" fill="#E7F1FC" mask="url(#mask-2)" points="399.464754 727.948858 838.799978 725.799981 719.390529 849.099978 170.838948 848.206618"></polygon>
                    <g id="Group-3-Copy" opacity="0.584705171" mask="url(#mask-2)">
                        <g transform="translate(373.399990, 338.449002)">
                            <polygon id="Rectangle-2" stroke="none" fill="url(#linearGradient-3)" opacity="0.3" points="1.58757602 102.46811 464.441221 102.46811 464.441221 204.175291 1.58757602 204.175291"></polygon>
                            <g id="Group-10-Copy-4" stroke="none" stroke-width="1" fill="none">
                                <g id="Group-15" transform="translate(0.000000, 0.028916)">
                                    <g id="Rectangle-2-Copy-9-+-Rectangle-2-Copy-10-Mask" transform="translate(264.308408, 169.363031)">
                                        <mask id="mask-5" fill="white">
                                            <use xlink:href="#path-4"></use>
                                        </mask>
                                        <use id="Mask" fill="#9AC6FF" opacity="0.835484601" xlink:href="#path-4"></use>
                                        <rect id="Rectangle-2-Copy-9" stroke="#5496ED" stroke-width="0.827988492" opacity="0.62352808" mask="url(#mask-5)" x="-0.318911619" y="15.0774601" width="16.7617523" height="24.0999035"></rect>
                                        <line x1="-0.732905865" y1="27.1274119" x2="17.1691876" y2="27.1274119" id="Path-57" stroke="#5496ED" stroke-width="0.827988492" mask="url(#mask-5)"></line>
                                    </g>
                                    <g id="Rectangle-4-Copy-2" transform="translate(30.365141, 195.757269)">
                                        <mask id="mask-7" fill="white">
                                            <use xlink:href="#path-6"></use>
                                        </mask>
                                        <use id="Mask" fill="#5496ED" opacity="0.571218297" xlink:href="#path-6"></use>
                                        <rect id="Rectangle-4-Copy" fill="#5496ED" opacity="0.571218297" mask="url(#mask-7)" x="-1.46581173" y="-1.46634659" width="37.3781991" height="8.06490623"></rect>
                                    </g>
                                    <g id="Rectangle-4-Copy-6" transform="translate(69.209151, 55.721170)">
                                        <mask id="mask-9" fill="white">
                                            <use xlink:href="#path-8"></use>
                                        </mask>
                                        <use id="Mask" fill="#689EE3" xlink:href="#path-8"></use>
                                        <polygon fill="#C5DEFF" mask="url(#mask-9)" points="-1.46581173 -1.46634659 55.7008458 -1.46634659 55.7008458 21.9975282 37.3781991 38.8581846 16.8568349 38.8581846 -1.46581173 21.9975282"></polygon>
                                    </g>
                                    <g id="Combined-Shape-Copy-24" transform="translate(198.200584, 201.622656)">
                                        <mask id="mask-11" fill="white">
                                            <use xlink:href="#path-10"></use>
                                        </mask>
                                        <use id="Mask" fill="#DEECFF" xlink:href="#path-10"></use>
                                        <path d="M-1.46581173,8.06490623 L-1.46581173,-1.46634659 L63.7628103,-1.46634659 L63.7628103,8.06490623 L36.6452933,8.06490623 C36.6452933,10.8993492 34.3483613,13.1971193 31.5149522,13.1971193 C28.6815431,13.1971193 26.3846112,10.8993492 26.3846112,8.06490623 L26.3846112,8.06490623 L-1.46581173,8.06490623 Z" id="Combined-Shape" stroke="#0448A2" stroke-width="1.27179032" fill="#FFFFFF" mask="url(#mask-11)"></path>
                                    </g>
                                    <g id="Rectangle-2-Copy-5-+-Rectangle-2-Copy-4-Mask" transform="translate(132.971962, 0.000000)">
                                        <mask id="mask-13" fill="white">
                                            <use xlink:href="#path-12"></use>
                                        </mask>
                                        <use id="Mask" fill="#9AC6FF" opacity="0.461560236" xlink:href="#path-12"></use>
                                        <rect id="Rectangle-2-Copy-5" stroke="#5496ED" stroke-width="0.827988492" mask="url(#mask-13)" x="-1.05181748" y="46.6039118" width="32.1527754" height="49.0277955"></rect>
                                        <path d="M-1.05181748,-1.05235234 L-1.05181748,95.6317073 L14.9770289,95.6317073 L14.9770289,-1.05235234 L-1.05181748,-1.05235234 Z" id="Rectangle-2-Copy-4" stroke="#5496ED" stroke-width="0.827988492" mask="url(#mask-13)"></path>
                                    </g>
                                    <g id="Oval-5-Copy-2" transform="translate(288.494302, 191.358230)">
                                        <mask id="mask-15" fill="white">
                                            <use xlink:href="#path-14"></use>
                                        </mask>
                                        <use id="Mask" fill="#9AC6FF" xlink:href="#path-14"></use>
                                        <ellipse id="Oval-5" stroke="#FFFFFF" stroke-width="0.827988492" mask="url(#mask-15)" cx="-0.240713677" cy="15.7632258" rx="10.7528743" ry="10.6310128"></ellipse>
                                    </g>
                                    <g id="Oval-5-Copy" transform="translate(119.046750, 177.967750)">
                                        <mask id="mask-17" fill="white">
                                            <use xlink:href="#path-16"></use>
                                        </mask>
                                        <use id="Mask" fill="#9AC6FF" xlink:href="#path-16"></use>
                                        <ellipse id="Oval-5" stroke="#FFFFFF" stroke-width="0.827988492" mask="url(#mask-17)" cx="20.8878172" cy="22.3617855" rx="11.3600409" ry="11.3641861"></ellipse>
                                    </g>
                                    <g id="Rectangle-2-Copy-6-+-Rectangle-2-Copy-7-Mask" transform="translate(171.083067, 41.057704)">
                                        <mask id="mask-19" fill="white">
                                            <use xlink:href="#path-18"></use>
                                        </mask>
                                        <use id="Mask" fill="#5496ED" opacity="0.630887681" xlink:href="#path-18"></use>
                                        <rect id="Rectangle-2-Copy-6" stroke="#FFFFFF" stroke-width="0.827988492" mask="url(#mask-19)" x="-1.05181748" y="27.5414061" width="38.9528046" height="27.0325967"></rect>
                                        <rect id="Rectangle-2-Copy-7" stroke="#FFFFFF" stroke-width="0.827988492" fill="#93BDF4" mask="url(#mask-19)" x="15.0721116" y="22.4091931" width="7.43785244" height="10.9027842"></rect>
                                    </g>
                                    <g id="Rectangle-2-Copy-2-+-Path-49-Mask-Copy" transform="translate(167.418537, 141.502446)">
                                        <mask id="mask-21" fill="white">
                                            <use xlink:href="#path-20"></use>
                                        </mask>
                                        <use id="Mask" fill="#C4DDFF" xlink:href="#path-20"></use>
                                        <rect id="Rectangle-2-Copy-2" fill="#FFFFFF" mask="url(#mask-21)" x="2.93162346" y="31.5264516" width="13.1923056" height="13.9302926"></rect>
                                        <line x1="2.93162346" y1="50.3080257" x2="16.123929" y2="50.3080257" id="Path-49" stroke="#FFFFFF" stroke-width="0.827988492" mask="url(#mask-21)"></line>
                                    </g>
                                    <g id="Rectangle-4-Copy-4-+-Path-50-Mask" transform="translate(15.707023, 33.725972)">
                                        <mask id="mask-23" fill="white">
                                            <use xlink:href="#path-22"></use>
                                        </mask>
                                        <use id="Mask" fill="#FFFFFF" xlink:href="#path-22"></use>
                                        <polygon id="Rectangle-4-Copy-4" fill="#AED1FF" mask="url(#mask-23)" points="-2.1987176 11.7307727 21.2542701 11.7307727 21.2542701 63.0529033 -2.1987176 63.0529033"></polygon>
                                        <line x1="16.5919197" y1="17.053835" x2="-1.44785817" y2="17.053835" id="Path-50" stroke="#5496ED" stroke-width="0.827988492" mask="url(#mask-23)"></line>
                                    </g>
                                    <g id="Rectangle-4-Copy-4-+-Path-50-Mask-Copy" transform="translate(13.284479, 200.995244) scale(-1, 1) translate(-13.284479, -200.995244) translate(0.784479, 174.495244)">
                                        <g id="Path-50" transform="translate(-0.000000, 0.000000)">
                                            <mask id="mask-25" fill="white">
                                                <use xlink:href="#path-24"></use>
                                            </mask>
                                            <use id="Mask" fill="#CBE2FF" xlink:href="#path-24"></use>
                                            <line x1="19.3403167" y1="9.23431065" x2="-1.87840105" y2="9.23431065" stroke="#5496ED" stroke-width="5.56408267" mask="url(#mask-25)"></line>
                                        </g>
                                    </g>
                                    <g id="Path-51-+-Path-51-Copy-+-Path-51-Copy-2-Mask" transform="translate(214.324513, 21.995199)">
                                        <mask id="mask-27" fill="white">
                                            <use xlink:href="#path-26"></use>
                                        </mask>
                                        <use id="Mask" fill="#9AC6FF" xlink:href="#path-26"></use>
                                        <line x1="5.28134421" y1="7.88022643" x2="22.1533201" y2="7.88022643" id="Path-51" stroke="#5496ED" stroke-width="0.827988492" mask="url(#mask-27)"></line>
                                        <line x1="5.28134421" y1="15.2119594" x2="11.892638" y2="15.2119594" id="Path-51-Copy" stroke="#5496ED" stroke-width="0.827988492" mask="url(#mask-27)"></line>
                                        <line x1="5.28134421" y1="22.5436923" x2="11.892638" y2="22.5436923" id="Path-51-Copy-2" stroke="#5496ED" stroke-width="0.827988492" mask="url(#mask-27)"></line>
                                    </g>
                                    <g id="Rectangle-6-Copy-+-Path-52-Mask" transform="translate(250.236900, 16.862986)">
                                        <mask id="mask-29" fill="white">
                                            <use xlink:href="#path-28"></use>
                                        </mask>
                                        <use id="Mask" fill="#FFFFFF" xlink:href="#path-28"></use>
                                        <path d="M-0.670942778,22.7900678 L-0.670942778,33.6642759 L50.5085416,33.6642759 L50.5085416,22.7900678 L-0.670942778,22.7900678 Z" id="Rectangle-6-Copy" stroke="#AED1FF" stroke-width="1.58973791" opacity="0.815613678" mask="url(#mask-29)"></path>
                                        <line x1="16.123929" y1="47.6562641" x2="34.3002921" y2="47.6562641" id="Path-52" stroke="#AED1FF" stroke-width="1.58973791" mask="url(#mask-29)"></line>
                                    </g>
                                    <g id="Path-53" transform="translate(307.403558, 50.588957)">
                                        <mask id="mask-31" fill="white">
                                            <use xlink:href="#path-30"></use>
                                        </mask>
                                        <use id="Mask" fill="#9AC6FF" xlink:href="#path-30"></use>
                                        <polygon stroke="#0448A2" stroke-width="0.827988492" fill="#FFFFFF" mask="url(#mask-31)" points="7.44512282 44.6934104 56.0498545 -3.15653418 -11.4699732 -28.4405564 -52.6247317 44.6934104"></polygon>
                                    </g>
                                    <g id="Path-54-+-Path-54-Copy-+-Path-54-Copy-3-+-Path-54-Copy-2-Mask" transform="translate(388.756109, 22.728372)">
                                        <mask id="mask-33" fill="white">
                                            <use xlink:href="#path-32"></use>
                                        </mask>
                                        <use id="Mask" fill="#DEECFF" xlink:href="#path-32"></use>
                                        <line x1="11.8265643" y1="13.1364344" x2="11.8265643" y2="31.5589669" id="Path-54" stroke="#5496ED" stroke-width="0.827988492" mask="url(#mask-33)"></line>
                                        <line x1="17.6898112" y1="13.1364344" x2="17.6898112" y2="31.5589669" id="Path-54-Copy" stroke="#5496ED" stroke-width="0.827988492" mask="url(#mask-33)"></line>
                                        <line x1="11.8265643" y1="42.4633662" x2="11.8265643" y2="60.8858987" id="Path-54-Copy-3" stroke="#5496ED" stroke-width="0.827988492" mask="url(#mask-33)"></line>
                                        <line x1="17.6898112" y1="42.4633662" x2="17.6898112" y2="60.8858987" id="Path-54-Copy-2" stroke="#5496ED" stroke-width="0.827988492" mask="url(#mask-33)"></line>
                                    </g>
                                    <g id="Path-54-+-Path-54-Copy-+-Path-54-Copy-3-+-Path-54-Copy-2-Mask-Copy" transform="translate(432.730461, 152.500045)">
                                        <mask id="mask-35" fill="white">
                                            <use xlink:href="#path-34"></use>
                                        </mask>
                                        <use id="Mask" fill="#FFFFFF" opacity="0.718580163" xlink:href="#path-34"></use>
                                    </g>
                                    <g id="Rectangle-2-Copy-8-+-Rectangle-2-Copy-3-Mask" transform="translate(74.339492, 149.567352)">
                                        <mask id="mask-37" fill="white">
                                            <use xlink:href="#path-36"></use>
                                        </mask>
                                        <use id="Mask" fill="#FFFFFF" xlink:href="#path-36"></use>
                                        <rect id="Rectangle-2-Copy-8" stroke="#5496ED" stroke-width="1.27179032" fill="#FFFFFF" mask="url(#mask-37)" x="-0.732905865" y="57.9206902" width="38.8440109" height="16.8629858"></rect>
                                        <rect id="Rectangle-2-Copy-3" stroke="#5496ED" stroke-width="1.27179032" fill="#FFFFFF" mask="url(#mask-37)" x="-0.732905865" y="-0.733173294" width="19.7884584" height="75.5168493"></rect>
                                    </g>
                                    <g id="Path-58" opacity="0.695482337" transform="translate(371.166368, 186.226017)">
                                        <mask id="mask-39" fill="white">
                                            <use xlink:href="#path-38"></use>
                                        </mask>
                                        <use id="Mask" fill="#9AC6FF" xlink:href="#path-38"></use>
                                        <line x1="0.0799441719" y1="-0.0459827003" x2="22.8731355" y2="23.3195292" stroke="#0448A2" stroke-width="0.915689034" mask="url(#mask-39)"></line>
                                    </g>
                                    <g id="Path-59-+-Path-60-Mask" transform="translate(397.550979, 175.228417)">
                                        <mask id="mask-41" fill="white">
                                            <use xlink:href="#path-40"></use>
                                        </mask>
                                        <use id="Mask" fill="#DEECFF" xlink:href="#path-40"></use>
                                        <line x1="3.66452933" y1="7.33173294" x2="22.0228048" y2="7.33173294" id="Path-59" stroke="#0448A2" stroke-width="0.915689034" mask="url(#mask-41)"></line>
                                        <line x1="13.1923056" y1="7.33173294" x2="13.1923056" y2="49.4170913" id="Path-60" stroke="#0448A2" stroke-width="0.915689034" mask="url(#mask-41)"></line>
                                    </g>
                                    <g id="Path-59-+-Path-60-Mask-Copy-2" transform="translate(426.867214, 47.462903)">
                                        <mask id="mask-43" fill="white">
                                            <use xlink:href="#path-42"></use>
                                        </mask>
                                        <use id="Mask" fill="#9AC6FF" xlink:href="#path-42"></use>
                                        <line x1="3.66452933" y1="7.33173294" x2="22.0228048" y2="7.33173294" id="Path-59" stroke="#5496ED" stroke-width="0.827988492" mask="url(#mask-43)"></line>
                                    </g>
                                </g>
                            </g>
                            <rect id="Rectangle-2-Copy-11" stroke="#6895D2" stroke-width="1.58973791" fill="#EAF4FD" x="1.58757602" y="96.1119597" width="462.853645" height="6.36492931"></rect>
                            <rect id="Rectangle-2-Copy-10" stroke="#6895D2" stroke-width="1.58973791" fill="#EAF4FD" x="1.58757602" y="224.683532" width="462.853645" height="6.36492931"></rect>
                        </g>
                    </g>
                    <g id="Oval" mask="url(#mask-2)">
                        <g transform="translate(641.362819, 523.407860)">
                            <mask id="mask-45" fill="white">
                                <use xlink:href="#path-44"></use>
                            </mask>
                            <use id="Mask" stroke="none" fill="#FFFFFF" fill-rule="evenodd" xlink:href="#path-44"></use>
                            <path d="M83.022443,209.893338 C104.147334,209.893338 118.831014,197.276831 118.831014,177.39458 C118.831014,157.51233 128.231958,158.406077 107.107067,158.406077 C85.9821761,158.406077 61.20294,162.503963 57.5525391,183.004225 C53.9021383,203.504486 61.8975519,209.893338 83.022443,209.893338 Z" id="Oval" stroke="none" fill="url(#linearGradient-46)" fill-rule="evenodd" mask="url(#mask-45)"></path>
                        </g>
                    </g>
                    <path d="M731.447188,715.994342 L722.240988,726.737323 L713.902701,732.198739 C701.93899,731.916601 696.46877,725.206371 697.492043,712.068049 C698.286323,702.742929 704.258408,694.372397 715.408299,686.956451 C726.031849,689.689555 732.36241,692.900585 734.399981,696.589541 C736.437551,700.278497 735.453287,706.746764 731.447188,715.994342 Z" id="Path-221" fill="#2FAFA4" mask="url(#mask-2)"></path>
                    <path d="M674.958877,662.509898 C667.10492,662.818325 662.140127,659.677096 660.064496,653.08621 C656.951051,643.19988 659.918166,629.991833 671.817704,626.674481 C683.717243,623.35713 692.378196,638.833163 690.824448,653.08621 C689.788615,662.58824 684.500092,665.72947 674.958877,662.509898 Z" id="Path-215" fill="#DCEAFB" mask="url(#mask-2)"></path>
                    <polygon id="Path-200" fill="#FFFFFF" mask="url(#mask-2)" points="580.855275 492.34339 656.951051 523.40786 649.639973 644.856994 652.041824 728.377608 479.624965 728.377608 470.249988 623.124042 447.12007 532.325997 498.797518 510.911893 523.214243 492.34339"></polygon>
                    <path d="M532.349986,692.360566 L666.815842,726.737323 L502.246165,728.377608 C473.006548,693.323055 457.891428,673.117788 456.900806,667.761808 C455.910184,662.405828 457.5078,654.218519 461.693656,643.19988 L533.905596,653.08621 L532.349986,692.360566 Z" id="Path-202" fill="url(#linearGradient-47)" mask="url(#mask-2)"></path>
                    <circle id="Oval" fill="#CFD9F6" mask="url(#mask-2)" cx="554.399985" cy="709.599981" r="5.39999986"></circle>
                    <path d="M566.01765,677.022599 C569.634014,698.947296 566.469931,715.518871 556.525402,726.737323" id="Path-219" stroke="#1A5986" stroke-width="0.899999976" stroke-linejoin="round" mask="url(#mask-2)"></path>
                    <path d="M558.899985,679.899982 C565.367876,686.168379 568.143897,692.497069 567.228048,698.886053" id="Path-220" stroke="#1A5986" stroke-width="0.899999976" stroke-linejoin="round" mask="url(#mask-2)"></path>
                    <path d="M645.523152,691.769331 L642.625066,681.89386 C639.048855,669.707619 638.092269,656.902473 639.818189,644.320145 L652.8384,549.399986 L652.8384,549.399986" id="Path-222" stroke="#1A5986" stroke-width="0.899999976" stroke-linejoin="round" mask="url(#mask-2)"></path>
                    <g id="Group-7" mask="url(#mask-2)">
                        <g transform="translate(563.408288, 516.146589) scale(-1, 1) rotate(-17.000000) translate(-563.408288, -516.146589) translate(464.908288, 367.646589)">
                            <g id="Group-2" transform="translate(0.000000, 106.199997)">
                                <path d="M89.9379599,1.38366579 C69.5311333,6.51370841 51.8073488,29.8364643 43.394323,52.5543522 L47.8986348,54.274868 C56.088148,32.1605365 75.3008571,10.3165033 91.4722032,7.04411822 C91.8976201,4.26970905 92.1103285,2.38289158 92.1103285,1.38366579 C92.1103285,0.0942986735 91.3862056,0.0942986735 89.9379599,1.38366579 Z" id="Path" fill="#0087FF"></path>
                                <path d="M18.3526486,66.9828843 L8.34283934,105.475769 C7.51797741,108.647789 7.73352015,112.000856 8.95772419,115.041157 L16.0527649,132.661637 L16.0527649,132.661637" id="Path-101" stroke="#B9CFFA" stroke-width="1.79999995" transform="translate(13.101506, 99.822260) rotate(14.000000) translate(-13.101506, -99.822260) "></path>
                                <path d="M52.54457,82.5494542 L53.7203069,118.206288 C53.8470989,122.051536 52.5205583,125.80341 50.0049793,128.714403 L41.6787017,138.349453 L41.6787017,138.349453" id="Path-101-Copy" stroke="#B9CFFA" stroke-width="1.79999995"></path>
                                <path d="M24.3821813,77.0294417 L37.0431411,56.0806492 C38.6062444,53.4943424 41.7450371,52.3055289 44.6426874,53.2023313 C47.6845208,54.1437575 49.7813714,56.9120245 49.851274,60.0787195 L50.3599184,83.1210853 L55.2713311,83.0139142 L54.7626867,59.9715483 C54.6464654,54.7065463 51.1602052,50.1039775 46.1028003,48.5387461 C41.0428545,46.9727283 35.56182,49.0486627 32.8322919,53.5649331 L20.1713321,74.5137256 L24.3821813,77.0294417 Z" id="Path-98" fill="#0087FF"></path>
                                <path d="M42.080902,137.111722 L43.0327707,138.013899 C43.2889718,138.256726 43.3795657,138.626906 43.2644567,138.960603 L42.0558001,142.464454 C41.8937127,142.934339 41.3813972,143.183859 40.9115115,143.021771 C40.7798838,142.976366 40.6605862,142.90104 40.5630031,142.801717 L37.9491525,140.141267 C37.6007996,139.786704 37.6058341,139.216877 37.9603974,138.868524 C38.0097192,138.820067 38.064461,138.777454 38.1235394,138.741529 L40.9941778,136.995951 C41.3410679,136.785014 41.786236,136.832439 42.080902,137.111722 Z" id="Path-117" fill="#086475"></path>
                                <path d="M9.89578563,130.3706 L10.912235,131.243936 C11.2004066,131.491534 11.3020572,131.893424 11.1662591,132.248257 L9.8753591,135.621309 C9.69769718,136.08553 9.17734823,136.317832 8.71312719,136.14017 C8.60636225,136.09931 8.50835911,136.038484 8.42435903,135.960945 L5.65198709,133.401822 C5.28674918,133.064677 5.26397471,132.495284 5.60111889,132.130046 C5.6662985,132.059435 5.742366,131.999719 5.82643165,131.953165 L8.87325423,130.265901 C9.20246667,130.08359 9.61035162,130.125354 9.89578563,130.3706 Z" id="Path-117-Copy" fill="#086475" transform="translate(8.294096, 133.176546) rotate(-57.000000) translate(-8.294096, -133.176546) "></path>
                            </g>
                            <g id="Group" transform="translate(117.188464, 148.503979) rotate(6.000000) translate(-117.188464, -148.503979) translate(52.688464, 6.003979)">
                                <circle id="Oval-Copy-5" stroke="#1A5986" stroke-width="0.899999976" stroke-linejoin="round" cx="93.1478259" cy="270.827194" r="13.4999996"></circle>
                                <path d="M86.1680564,119.147181 L88.7620975,124.801405 C101.738055,128.10816 108.448486,143.183399 108.76371,170.92958 C109.101002,200.618267 102.884177,230.630177 90.0974209,260.983294 L94.9654042,263.080546 C108.032273,232.062495 114.400639,201.319021 114.054687,170.868105 C113.700147,139.661312 105.101394,122.093462 87.8097652,119.147181 C87.0416776,119.058335 86.4944413,119.058335 86.1680564,119.147181 Z" id="Path-99" fill="#0087FF"></path>
                                <circle id="Oval" fill="#CFD9F6" cx="88.5813201" cy="270.372195" r="13.4999996"></circle>
                                <circle id="Oval-Copy-6" stroke="#1A5986" stroke-width="0.899999976" stroke-linejoin="round" cx="89.1432245" cy="270.073425" r="9.44999975"></circle>
                                <path d="M18.7861665,157.229055 L50.3487708,172.786527 L89.9554448,157.229055 L54.0133545,255.296345 C42.2529135,225.826695 33.4416052,204.462132 27.5794297,191.202657 C21.7172542,177.943182 18.7861665,166.618648 18.7861665,157.229055 Z" id="Path-214" fill="#368981" transform="translate(54.370806, 206.262700) rotate(11.000000) translate(-54.370806, -206.262700) "></path>
                                <rect id="Rectangle" fill="#37746F" transform="translate(58.592293, 178.789453) rotate(16.000000) translate(-58.592293, -178.789453) " x="26.1922938" y="165.739454" width="64.7999983" height="26.0999993"></rect>
                                <path d="M61.5012442,183.599995 C60.7371748,194.643892 58.7141677,203.080775 55.4322229,208.910642 C50.5093056,217.655444 46.3953417,222.149023 46.2012446,243.899994" id="Path-6" stroke="#FFFFFF" stroke-width="0.899999976"></path>
                                <path d="M78.2581745,198.316962 C77.2623804,196.458776 77.1116512,193.743659 77.805987,190.171612 C78.5003227,186.599564 79.3181108,182.392409 80.2593514,177.550146 L64.9738397,185.242379 L102.871114,140.768099 C99.8522226,156.219664 96.5474217,168.503873 92.9567117,177.620726 C89.3660017,186.737579 84.4664893,193.636324 78.2581745,198.316962 Z" id="Path-5" fill="#37AFA4" transform="translate(83.922477, 169.542530) rotate(5.000000) translate(-83.922477, -169.542530) "></path>
                                <path d="M82.0260449,187.309694 L28.5565508,272.119831 L28.5565508,272.119831 L36.2380151,276.321821 L97.2119544,225.971431 L86.72106,207.771161 L106.800181,219.382457 L115.099772,181.000153 C118.724428,164.237562 113.325335,146.79956 100.86288,135.017805 L100.86288,135.017805 L100.86288,135.017805 L92.3196306,164.421912 C89.9741816,172.494464 86.5093096,180.198606 82.0260449,187.309694 Z" id="Path-2" fill="#FFFFFF"></path>
                                <path d="M26.6319712,174.007039 L37.5118986,167.657471 L44.5721503,187.002227 C55.0609896,162.839227 61.0122927,145.051537 62.4260595,133.639157 C63.8398263,122.226777 64.2520049,115.213131 63.6625952,112.598218 L60.7765739,112.598218 L26.6319712,174.007039 Z" id="Path-213" fill="#37AFA4" transform="translate(45.277353, 149.800223) scale(-1, 1) rotate(-16.000000) translate(-45.277353, -149.800223) "></path>
                                <path d="M35.9705599,109.13663 L35.9705599,109.13663 C24.0728728,114.883696 15.3618827,121.478242 9.8375895,128.920269 C9.38651258,129.583556 8.82507504,131.693281 8.15327688,135.249444 C7.00272638,141.339882 4.54856693,160.021419 0.790798518,191.294056 L26.7218268,193.369303 L11.326729,207.970791 L37.7444192,260.490503 L41.1214496,256.096998 L45.5651143,250.315805" id="Path" fill="#FFFFFF"></path>
                                <path d="M8.16752438,135.174154 C7.01648689,141.246209 4.55757827,159.952843 0.790798518,191.294056 L26.7218268,193.369303 L11.326729,207.970791 L36.3915872,258.915032" id="Path" stroke="#1A5986" stroke-width="0.899999976" stroke-linejoin="round"></path>
                                <g id="Path-212" transform="translate(33.299999, 107.099997)">
                                    <mask id="mask-49" fill="white">
                                        <use xlink:href="#path-48"></use>
                                    </mask>
                                    <use id="Mask" fill="#F9946B" xlink:href="#path-48"></use>
                                    <path d="M-8.99999976,27.4147827 L13.0194012,45.2677151 C26.9207739,56.5386968 46.7370377,56.8078935 60.9394484,45.9186915 L86.8204971,26.075302 L86.8204971,26.075302 L75.854561,5.39999986 L-8.99999976,27.4147827 Z" fill="#ED7763" mask="url(#mask-49)" transform="translate(38.910249, 34.942990) scale(-1, 1) translate(-38.910249, -34.942990) "></path>
                                </g>
                                <g id="Group-3" transform="translate(20.699999, -0.000000)">
                                    <path d="M10.4639009,84.1310111 C3.21524406,75.4398432 0.628372447,65.7646658 2.7032861,55.1054789 C-6.5318484,33.4187152 13.9596304,-1.78246533 44.6924816,2.05182076 C75.4086418,-5.02772967 94.7241557,10.0703418 101.686088,22.6674351 C108.64802,35.2645285 111.571776,68.6064215 98.2215156,88.8272666 C89.3213419,102.30783 60.8437989,95.7829925 12.7888867,69.2527542 L10.4639009,84.1310111 Z" id="Path-4" fill="#142832"></path>
                                    <path d="M7.54396346,71.8230213 L9.70267731,94.3815836 C10.815333,106.008837 14.1806608,117.30833 19.610912,127.649674 L26.6512382,141.057237 C30.4657711,148.321615 37.3752022,153.458545 45.4304482,155.018948 C53.4502774,156.572491 61.7327666,154.247687 67.7727499,148.747709 L73.1060516,143.891232 C82.8014504,135.062652 89.3931317,123.344261 91.9034727,110.474033 L93.2728814,103.453233 L93.2728814,103.453233 C98.7934297,102.188797 103.221071,98.0770069 104.889876,92.6649515 L106.279823,88.1572522 L106.279823,88.1572522 L106.504217,69.7602644 C106.513529,68.9968124 105.902178,68.3703633 105.138726,68.3610512 C104.780242,68.3566787 104.43408,68.4917391 104.173281,68.7377336 L101.802599,70.9738445 C100.980316,79.0260563 98.6997818,84.0229921 94.9609966,85.964652 C89.3528188,88.8771418 81.2201643,61.9819639 67.5306493,53.4071807 C53.8411344,44.8323975 42.0346507,55.9463071 28.1050118,44.0876696 C23.751508,53.7525596 17.3106628,58.9605398 8.78247612,59.7116103 L7.54396346,71.8230213 Z" id="Path-3" fill="#F9946B"></path>
                                </g>
                                <path d="M82.0260449,187.309694 L28.5565508,272.119831 L36.2380151,276.321821 L97.2119544,225.971431 L86.72106,207.771161 L106.800181,219.382457 L115.099772,181.000153 C116.689829,168.720268 116.053001,159.092262 113.189289,152.116134" id="Path" stroke="#1A5986" stroke-width="0.899999976" stroke-linejoin="round"></path>
                            </g>
                        </g>
                    </g>
                    <polygon id="Path-201" fill="#054A60" mask="url(#mask-2)" points="543.550031 754.495925 684.117241 655.54562 790.081652 629.841742 656.951051 728.377608"></polygon>
                    <polygon id="Path-201-Copy" fill="#054A60" mask="url(#mask-2)" points="542.483617 752.424688 682.317242 653.74562 788.92562 626.220471 790.081652 629.841742 655.151051 726.577608 543.550031 754.495925"></polygon>
                    <polyline id="Path-229" stroke="#FFFFFF" stroke-width="0.899999976" mask="url(#mask-2)" points="790.081652 629.841742 683.605024 656.14476 548.999985 750.646609"></polyline>
                    <path d="M554.240654,692.360566 C563.153626,688.087904 567.052291,678.233327 565.936649,662.796836 C564.821006,647.360344 560.18731,641.355765 552.03556,644.783099 L535.705596,650.732663 L536.904555,690.123029 L554.240654,692.360566 Z" id="Path-205" fill="#368981" mask="url(#mask-2)"></path>
                    <path d="M447.12007,532.325997 C434.970243,544.372265 428.135768,560.772789 428.135768,577.882168 L428.135768,653.213102 L428.135768,653.213102 L431.354765,709.894411 C431.899922,719.493745 437.905511,727.928407 446.79818,731.584204 C456.107099,735.411122 466.562614,735.341039 475.819396,731.389677 L533.412271,706.805503 C538.229451,704.749234 542.114824,700.982383 544.319292,696.231194 C546.561093,691.399543 547.466312,686.055154 546.940652,680.754757 L544.572117,656.872075 C544.109152,652.203856 539.949506,648.794824 535.281287,649.257789 C534.725866,649.312872 534.177226,649.422566 533.643324,649.585281 L533.643324,649.585281 L533.643324,649.585281 L472.949987,663.341068 L457.386517,572.988685 L447.12007,532.325997 Z" id="Path-203" fill="#FFFFFF" mask="url(#mask-2)"></path>
                    <rect id="Rectangle" fill="#054A60" mask="url(#mask-2)" transform="translate(638.188377, 662.748098) rotate(-17.000000) translate(-638.188377, -662.748098) " x="588.238378" y="659.598098" width="99.8999974" height="6.29999983"></rect>
                    <path d="M529.817131,702.816341 L554.240654,692.360566 C547.629322,689.960533 543.558735,682.153945 542.028892,668.940804 C540.49905,655.727662 543.834606,647.675094 552.03556,644.783099 L533.643324,649.585281 L528.301525,657.896479 C519.412366,671.726943 520.015963,689.616493 529.817131,702.816341 L529.817131,702.816341 L529.817131,702.816341 Z" id="Path-204" fill="#2FAFA4" mask="url(#mask-2)"></path>
                    <g id="Path-224" mask="url(#mask-2)">
                        <g transform="translate(540.120658, 632.399721)">
                            <mask id="mask-51" fill="white">
                                <use xlink:href="#path-50"></use>
                            </mask>
                            <use id="Mask" stroke="none" fill="#F9946B" fill-rule="evenodd" xlink:href="#path-50"></use>
                            <line x1="73.6261668" y1="43.3960572" x2="59.6874233" y2="27.3281176" id="Path-9" stroke="#CC5829" stroke-width="0.899999976" fill="none" stroke-linecap="round" mask="url(#mask-51)"></line>
                            <line x1="84.9180693" y1="39.2682014" x2="70.9793259" y2="23.2002618" id="Path-9-Copy" stroke="#CC5829" stroke-width="0.899999976" fill="none" stroke-linecap="round" mask="url(#mask-51)"></line>
                            <polygon id="Path-224" stroke="none" fill="#ED7763" fill-rule="evenodd" mask="url(#mask-51)" points="-0.899999976 41.3999989 31.4799159 41.3999989 5.61908964 59.9608447"></polygon>
                        </g>
                    </g>
                    <path d="M673.612978,626.220471 L768.089466,610.714803 C773.392272,609.844496 778.824961,611.087293 783.221965,614.176555 C787.196917,616.969291 788.612669,622.200986 786.588519,626.617142 L781.066189,638.66539 L781.066189,638.66539 L764.57478,662.286486 L634.32002,712.068049 C664.578724,684.94235 682.545652,667.823851 688.220804,660.712551 C691.708325,656.342482 691.51544,642.845976 686.65032,633.977346 C683.813494,628.806096 679.467714,626.220471 673.612978,626.220471 Z" id="Path-216" fill="#FFFFFF" mask="url(#mask-2)"></path>
                    <line x1="701.021505" y1="660.712551" x2="754.82704" y2="647.017503" id="Path-235" stroke="#1A5986" stroke-width="0.899999976" stroke-linejoin="round" mask="url(#mask-2)"></line>
                    <g id="Path-208" mask="url(#mask-2)">
                        <g transform="translate(703.372657, 637.511479)">
                            <mask id="mask-53" fill="white">
                                <use xlink:href="#path-52"></use>
                            </mask>
                            <use id="Mask" stroke="none" fill="#F9946B" fill-rule="evenodd" xlink:href="#path-52"></use>
                            <path d="M37.3004108,14.4668458 C37.8543906,12.8989079 38.8551727,12.2761969 40.3027571,12.5987126 C41.1000004,12.7424681 41.8813144,13.7204381 42.6466994,15.5326227 C40.6911526,16.9172772 39.3112179,17.9055717 38.506895,18.4975061 C37.7025722,19.0894405 37.3004108,17.745887 37.3004108,14.4668458 Z" id="Path-210" stroke="#CC5829" stroke-width="0.899999976" fill="none" stroke-linecap="round" mask="url(#mask-53)"></path>
                            <path d="M58.563692,4.34270807 C58.7364997,2.86135545 60.5663693,1.57281749 61.9667456,2.45636466 C62.9003298,3.04539611 63.5303989,3.92103159 63.8569529,5.08327111 C63.6096906,5.97845676 63.2297102,6.70310283 62.7170117,7.25720932 C62.2043131,7.81131582 61.3116645,8.46208218 60.0390659,9.20950842 C58.9402782,6.95254327 58.4484868,5.33027649 58.563692,4.34270807 Z" id="Path-210-Copy-2" stroke="#CC5829" stroke-width="0.899999976" fill="none" stroke-linecap="round" mask="url(#mask-53)" transform="translate(61.202123, 5.688401) rotate(29.000000) translate(-61.202123, -5.688401) "></path>
                            <path d="M20.5193735,27.1898884 C20.5029834,26.158529 21.0042301,24.8785412 22.6015873,25.2344256 C23.1880733,25.3401783 24.2270502,26.1131857 25.718518,27.553448 C24.0067236,28.7972779 22.8549793,29.6369189 22.2632852,30.0723711 C21.375744,30.7255493 20.5357635,28.2212478 20.5193735,27.1898884 Z" id="Path-210-Copy" stroke="#CC5829" stroke-width="0.899999976" fill="none" stroke-linecap="round" mask="url(#mask-53)" transform="translate(23.118752, 27.676599) rotate(-4.000000) translate(-23.118752, -27.676599) "></path>
                            <path d="M10.1179924,37.5393905 C11.2774399,36.4701763 12.7750673,37.0147353 14.6108747,39.1730673 L11.2393993,42.0141584 C9.33234716,40.100194 8.95854486,38.6086047 10.1179924,37.5393905 Z" id="Path-211" stroke="#CC5829" stroke-width="0.899999976" fill="none" stroke-linecap="round" mask="url(#mask-53)"></path>
                            <line x1="44.7585002" y1="47.8315365" x2="47.2033764" y2="53.0264372" id="Path-207" stroke="#CC5829" stroke-width="0.899999976" fill="none" stroke-linecap="round" mask="url(#mask-53)"></line>
                            <line x1="33.2564975" y1="54.582527" x2="36.899999" y2="63.5735959" id="Path-209" stroke="#CC5829" stroke-width="0.899999976" fill="none" stroke-linecap="round" mask="url(#mask-53)"></line>
                            <path d="M12.5646218,50.734137 C16.912935,57.331323 19.7447575,62.5468083 21.0600894,66.380593 L-5.68434189e-14,67.7981464 L12.5646218,50.734137 Z" id="Path-208" stroke="none" fill="#ED7763" fill-rule="evenodd" mask="url(#mask-53)"></path>
                            <path d="M52.857548,27.8494818 C54.95669,31.9003813 56.7873154,36.5426571 58.3494241,41.7763092 C59.2531591,44.3306556 59.9097341,46.148319 60.3191491,47.2292992" id="Path" stroke="#CC5829" stroke-width="0.899999976" fill="none" stroke-linecap="round" mask="url(#mask-53)"></path>
                        </g>
                    </g>
                    <polyline id="Path-217" stroke="#1A5986" stroke-width="0.899999976" stroke-linejoin="round" mask="url(#mask-2)" points="533.905596 649.807887 472.070055 663.648098 455.414873 561.418387"></polyline>
                    <line x1="472.070055" y1="663.648098" x2="457.386517" y2="688.891048" id="Path-218" stroke="#1A5986" stroke-width="0.899999976" stroke-linejoin="round" mask="url(#mask-2)"></line>
                    <line x1="673.158877" y1="626.220471" x2="765.736874" y2="610.360499" id="Path-223" stroke="#1A5986" stroke-width="0.899999976" stroke-linejoin="round" mask="url(#mask-2)"></line>
                    <g id="Group-16" mask="url(#mask-2)">
                        <g transform="translate(313.508205, 553.007181)">
                            <path d="M170.29931,31.492804 L176.527013,52.2641689 C170.056701,54.1139962 165.744929,51.5653755 163.591698,44.6183069 C161.438466,37.6712382 163.674337,33.2960706 170.29931,31.492804 Z" id="Path-20" stroke="none" fill="#ED7763" fill-rule="evenodd"></path>
                            <path d="M169.39931,44.0928036 L175.627013,64.8641686 C169.156701,66.7139959 164.844929,64.1653752 162.691698,57.2183065 C160.538466,50.2712379 162.774337,45.8960703 169.39931,44.0928036 Z" id="Path-20-Copy" stroke="none" fill="#ED7763" fill-rule="evenodd" transform="translate(168.763226, 54.770225) rotate(11.000000) translate(-168.763226, -54.770225) "></path>
                            <path d="M166.69931,53.0928034 L172.927013,73.8641683 C166.456701,75.7139956 162.14493,73.1653749 159.991698,66.2183063 C157.838466,59.2712377 160.074337,54.89607 166.69931,53.0928034 Z" id="Path-20-Copy-2" stroke="none" fill="#ED7763" fill-rule="evenodd" transform="translate(166.063226, 63.770225) rotate(23.000000) translate(-166.063226, -63.770225) "></path>
                            <path d="M122.279205,82.3561809 C130.16081,64.5124982 136.643572,43.2261359 139.287184,37.3594699 C141.930796,31.492804 155.110089,13.5371951 158.73586,12.0112063 C162.361632,10.4852176 172.516191,26.773814 174.102716,32.3713583 C175.1604,36.1030545 175.968499,39.1884765 176.527013,41.6276244 C171.377963,44.0577266 167.726822,43.1012315 165.573591,38.7581393 C165.107843,37.818721 160.515287,28.6024786 160.061122,30.592804 C156.768596,45.0219146 116.714025,94.9555582 122.279205,82.3561809 Z" id="Path-19" stroke="none" fill="#F9946B" fill-rule="evenodd"></path>
                            <g id="Group-28" stroke="none" stroke-width="1" fill="none" fill-rule="evenodd" transform="translate(158.991782, 0.892805)">
                                <rect id="Rectangle" fill="#37AFA4" x="0" y="0" width="8.99999976" height="21.5999994" rx="4.49999988"></rect>
                                <path d="M0,10.7999997 L9,10.7999997 L9,17.0999995 C9,19.5852809 6.98528143,21.5999994 4.50000012,21.5999994 L4.49999988,21.5999994 C2.01471857,21.5999994 3.0435918e-16,19.5852809 0,17.0999995 L0,10.7999997 L0,10.7999997 Z" id="Rectangle-Copy-5" fill="#A7CAF3"></path>
                                <polyline id="Path" stroke="#DCECFC" stroke-width="0.899999976" points="0 10.7999997 0 10.7999997 0 10.7999997 8.99999976 10.7999997"></polyline>
                            </g>
                            <path d="M34.793633,198.892547 L127.752046,74.5666946 L139.030815,58.0540214 C140.692091,55.6218312 142.23297,53.1095552 143.647887,50.5262635 L154.042266,31.5486838 L154.042266,31.5486838 L154.496607,14.4613026 C154.550338,12.4405514 156.232037,10.8459659 158.252788,10.8996962 C158.915776,10.9173246 159.561515,11.1147613 160.121,11.4709075 C163.517111,13.6327397 165.573591,17.3795983 165.573591,21.4054011 L165.573591,40.4928037 L165.573591,40.4928037 L165.573591,63.7164826 L164.905761,71.0380751 C164.061751,80.2911917 158.115252,88.2958568 149.500051,91.7759182 L149.500051,91.7759182 L149.500051,91.7759182 L99.9956391,196.625673 L34.793633,198.892547 Z" id="Path-15" stroke="none" fill="#F9946B" fill-rule="evenodd"></path>
                            <path d="M139.030815,58.0540214 C140.692091,55.6218312 142.23297,53.1095552 143.647887,50.5262635 L154.042266,31.5486838 L154.042266,31.5486838 L154.496607,14.4613026 C154.550338,12.4405514 156.232037,10.8459659 158.252788,10.8971214 C158.915776,10.9173246 159.561515,11.1147613 160.121,11.4709075 C163.517111,13.6327397 165.573591,17.3795983 165.573591,21.4054011 L165.573591,40.4928037 L165.573591,40.4928037 L165.573591,63.7164826 L164.905761,71.0380751 C164.061751,80.2911917 158.115252,88.2958568 149.500051,91.7759182 L149.500051,91.7759182 L149.500051,91.7759182 L99.9956391,196.625673 L34.793633,198.892547 L34.793633,198.892547" id="Path" stroke="#CC5829" stroke-width="0.899999976" fill="none" stroke-linecap="round"></path>
                            <path d="M0,96.7261348 L53.3901327,168.744782 L121.038972,80.0701656 L147.149728,103.137579 L135.591783,124.407474 C136.987391,131.628115 136.987391,138.082437 135.591783,143.77044 C134.196175,149.458444 126.682887,160.322443 113.051918,176.362438 L94.0205118,219.902043 L0,219.902043 L0,96.7261348 Z" id="Path-275" stroke="none" fill="#37AFA4" fill-rule="evenodd"></path>
                            <path d="M156.291782,18.3865997 L161.26185,18.3865997 C160.367111,14.9093541 159.239787,13.1707313 157.879878,13.1707313 C156.519969,13.1707313 155.990604,14.9093541 156.291782,18.3865997 Z" id="Path-17" stroke="#CC5829" stroke-width="0.899999976" fill="none" stroke-linecap="round"></path>
                            <line x1="154.042266" y1="31.5486838" x2="159.441782" y2="31.5486838" id="Path-18" stroke="#CC5829" stroke-width="0.899999976" fill="none" stroke-linecap="round"></line>
                        </g>
                    </g>
                    <path d="M319.315969,657.902643 L355.248767,725.799981 L324.289468,730.110012 L324.70235,729.477913 C330.092807,721.225431 331.863678,711.123621 329.601745,701.529657 L319.315969,657.902643 L319.315969,657.902643 Z" id="Path-281" fill="url(#linearGradient-54)" mask="url(#mask-2)"></path>
                    <g id="Path-7" mask="url(#mask-2)">
                        <g transform="translate(187.923995, 427.433321)">
                            <mask id="mask-56" fill="white">
                                <use xlink:href="#path-55"></use>
                            </mask>
                            <use id="Mask" stroke="none" fill="#F9946B" fill-rule="evenodd" xlink:href="#path-55"></use>
                            <path d="M146.346822,121.966664 C126.732809,120.24633 114.159488,121.545565 108.626857,125.864372 C100.327911,132.342581 107.01136,179.875848 115.239122,198.787149 C120.724296,211.394684 131.09353,185.787855 146.346822,121.966664 Z" id="Path-7" stroke="none" fill="#ED7763" fill-rule="evenodd" mask="url(#mask-56)"></path>
                        </g>
                    </g>
                    <path d="M353.365132,438.643426 C344.407248,467.394915 330.607676,484.162196 311.966414,488.94527 C313.315167,532.057961 298.067588,556.03334 266.223677,560.871408 C218.457812,568.128511 208.310872,568.128511 182.784126,590.366651 C153.852295,569.21891 177.9459,528.950462 203.949905,516.263535 C229.953911,503.576608 221.503212,451.252794 259.426377,410.495728 C297.349541,369.738661 334.664982,401.930705 353.365132,407.196448 C372.065282,412.46219 386.424644,423.929307 384.147178,441.825891 C382.628868,453.756947 377.011501,462.219447 367.295077,467.21339 C366.753816,457.861927 365.676046,451.530772 364.061767,448.219927 C362.447488,444.909082 358.881943,441.716915 353.365132,438.643426 Z" id="Path-225" fill="#142832" mask="url(#mask-2)"></path>
                    <path d="M531.578659,714.999981 C539.044781,718.400804 544.133903,720.525222 546.846024,721.373234 C550.914205,722.645253 551.153947,724.105028 548.999985,726.737323 C546.846024,729.369619 536.623298,728.544339 531.578659,727.552328 C528.215567,726.890987 524.223981,723.847528 519.6039,718.42195 L531.578659,714.999981 Z" id="Path-13" fill="#ED7763" mask="url(#mask-2)"></path>
                    <g id="Path-10-+-Path-10-Copy-+-Path-11-+-Path-12-Mask" mask="url(#mask-2)">
                        <g transform="translate(181.878075, 612.059948)">
                            <mask id="mask-58" fill="white">
                                <use xlink:href="#path-57"></use>
                            </mask>
                            <use id="Mask" stroke="none" fill="#F9946B" fill-rule="evenodd" xlink:href="#path-57"></use>
                            <line x1="127.766079" y1="125.506353" x2="115.109063" y2="142.435977" id="Path-206" stroke="#CC5829" stroke-width="0.899999976" fill="none" stroke-linecap="round" mask="url(#mask-58)"></line>
                            <line x1="348.574046" y1="122.758606" x2="326.877604" y2="111.860735" id="Path-10" stroke="#CC5829" stroke-width="0.899999976" fill="none" stroke-linecap="round" mask="url(#mask-58)"></line>
                            <line x1="338.418354" y1="133.637904" x2="316.721912" y2="122.740033" id="Path-10-Copy" stroke="#CC5829" stroke-width="0.899999976" fill="none" stroke-linecap="round" mask="url(#mask-58)"></line>
                            <path d="M389.189612,84.5514639 L391.750078,84.2951331 C392.783588,84.1916674 393.722687,84.9008948 393.905932,85.9232784 C394.105569,87.037116 393.463571,88.1302413 392.39354,88.498375 C390.782599,89.0526502 389.864588,88.9719992 389.639508,88.2564219 C389.339577,87.3028773 389.189612,86.0678913 389.189612,84.5514639 Z" id="Path-11" stroke="#CC5829" stroke-width="0.899999976" fill="none" stroke-linecap="round" mask="url(#mask-58)"></path>
                            <line x1="344.655947" y1="104.494245" x2="334.439064" y2="97.5400334" id="Path-12" stroke="#CC5829" stroke-width="0.899999976" fill="none" stroke-linecap="round" mask="url(#mask-58)"></line>
                        </g>
                    </g>
                    <g id="Group-2-Copy" mask="url(#mask-2)">
                        <g transform="translate(482.399987, 756.399980)">
                            <g id="Path-53" stroke="none" stroke-width="1" fill="none" fill-rule="evenodd" transform="translate(14.849410, 17.540049)">
                                <mask id="mask-60" fill="white">
                                    <use xlink:href="#path-59"></use>
                                </mask>
                                <use id="Mask" fill="#FFFFFF" xlink:href="#path-59"></use>
                                <rect id="Rectangle" fill="#BFDBFC" mask="url(#mask-60)" x="37.4205141" y="7.72844016" width="35.0446084" height="11.8899079"></rect>
                            </g>
                            <polygon id="Path-241" stroke="none" fill="#0087FF" fill-rule="evenodd" points="14.8494103 64.5051854 0.304549561 41.0226172 0.304549561 -7.1615142e-15 14.8494103 17.540049"></polygon>
                            <polygon id="Path-255" stroke="none" fill="#FFFFFF" fill-rule="evenodd" points="0.304549561 0 74.2470517 0 93.8482734 17.540049 14.8494103 17.540049"></polygon>
                            <line x1="14.8494103" y1="17.7986753" x2="70.4774053" y2="17.7986753" id="Path-256" stroke="#1A5986" stroke-width="0.899999976" fill="none" stroke-linejoin="round"></line>
                            <line x1="39.6935258" y1="0" x2="54.3048738" y2="17.540049" id="Path-257" stroke="#1A5986" stroke-width="0.899999976" fill="none" stroke-linejoin="round"></line>
                        </g>
                    </g>
                    <g id="Group-4" mask="url(#mask-2)">
                        <g transform="translate(554.399985, 759.999980)">
                            <g id="Path-262" transform="translate(0.000000, 9.000000)">
                                <g transform="translate(-0.000000, 0.000000)">
                                    <mask id="mask-62" fill="white">
                                        <use xlink:href="#path-61"></use>
                                    </mask>
                                    <use id="Mask" fill="#DCEAFB" xlink:href="#path-61"></use>
                                    <g id="Group-28" mask="url(#mask-62)">
                                        <g transform="translate(34.099999, 55.973204) rotate(-330.000000) translate(-34.099999, -55.973204) translate(29.599999, 44.973204)">
                                            <rect id="Rectangle" stroke="none" fill="#37AFA4" fill-rule="evenodd" x="0" y="0" width="8.99999976" height="21.5999994" rx="4.49999988"></rect>
                                            <path d="M0,10.7999997 L9,10.7999997 L9,17.0999995 C9,19.5852809 6.98528143,21.5999994 4.50000012,21.5999994 L4.49999988,21.5999994 C2.01471857,21.5999994 3.0435918e-16,19.5852809 0,17.0999995 L0,10.7999997 L0,10.7999997 Z" id="Rectangle-Copy-5" stroke="none" fill="#A7CAF3" fill-rule="evenodd"></path>
                                            <polyline id="Path" stroke="#DCECFC" stroke-width="0.899999976" fill="none" points="0 10.7999997 0 10.7999997 0 10.7999997 8.99999976 10.7999997"></polyline>
                                        </g>
                                    </g>
                                    <g id="Group-28-Copy" mask="url(#mask-62)">
                                        <g transform="translate(19.606814, 59.451762) rotate(-285.000000) translate(-19.606814, -59.451762) translate(15.106814, 48.451762)">
                                            <rect id="Rectangle" stroke="none" fill="#37AFA4" fill-rule="evenodd" x="0" y="0" width="8.99999976" height="21.5999994" rx="4.49999988"></rect>
                                            <path d="M0,10.7999997 L9,10.7999997 L9,17.0999995 C9,19.5852809 6.98528143,21.5999994 4.50000012,21.5999994 L4.49999988,21.5999994 C2.01471857,21.5999994 3.0435918e-16,19.5852809 0,17.0999995 L0,10.7999997 L0,10.7999997 Z" id="Rectangle-Copy-5" stroke="none" fill="#A7CAF3" fill-rule="evenodd"></path>
                                            <polyline id="Path" stroke="#DCECFC" stroke-width="0.899999976" fill="none" points="0 10.7999997 0 10.7999997 0 10.7999997 8.99999976 10.7999997"></polyline>
                                        </g>
                                    </g>
                                    <g id="Group-28-Copy-2" mask="url(#mask-62)">
                                        <g transform="translate(21.800000, 50.399999) scale(-1, 1) rotate(-270.000000) translate(-21.800000, -50.399999) translate(17.300000, 39.399999)">
                                            <rect id="Rectangle" stroke="none" fill="#37AFA4" fill-rule="evenodd" x="0" y="0" width="8.99999976" height="21.5999994" rx="4.49999988"></rect>
                                            <path d="M0,10.7999997 L9,10.7999997 L9,17.0999995 C9,19.5852809 6.98528143,21.5999994 4.50000012,21.5999994 L4.49999988,21.5999994 C2.01471857,21.5999994 3.0435918e-16,19.5852809 0,17.0999995 L0,10.7999997 L0,10.7999997 Z" id="Rectangle-Copy-5" stroke="none" fill="#A7CAF3" fill-rule="evenodd"></path>
                                            <polyline id="Path" stroke="#DCECFC" stroke-width="0.899999976" fill="none" points="0 10.7999997 0 10.7999997 0 10.7999997 8.99999976 10.7999997"></polyline>
                                        </g>
                                    </g>
                                    <g id="Group-28-Copy-6" mask="url(#mask-62)">
                                        <g transform="translate(30.773204, 39.699999) scale(-1, 1) rotate(-300.000000) translate(-30.773204, -39.699999) translate(26.273204, 28.699999)">
                                            <rect id="Rectangle" stroke="none" fill="#37AFA4" fill-rule="evenodd" x="0" y="0" width="8.99999976" height="21.5999994" rx="4.49999988"></rect>
                                            <path d="M0,10.7999997 L9,10.7999997 L9,17.0999995 C9,19.5852809 6.98528143,21.5999994 4.50000012,21.5999994 L4.49999988,21.5999994 C2.01471857,21.5999994 3.0435918e-16,19.5852809 0,17.0999995 L0,10.7999997 L0,10.7999997 Z" id="Rectangle-Copy-5" stroke="none" fill="#A7CAF3" fill-rule="evenodd"></path>
                                            <polyline id="Path" stroke="#DCECFC" stroke-width="0.899999976" fill="none" points="0 10.7999997 0 10.7999997 0 10.7999997 8.99999976 10.7999997"></polyline>
                                        </g>
                                    </g>
                                    <g id="Group-28-Copy-3" mask="url(#mask-62)">
                                        <g transform="translate(11.900000, 34.199999) scale(-1, 1) rotate(-270.000000) translate(-11.900000, -34.199999) translate(7.400000, 23.199999)">
                                            <rect id="Rectangle" stroke="none" fill="#37AFA4" fill-rule="evenodd" x="0" y="0" width="8.99999976" height="21.5999994" rx="4.49999988"></rect>
                                            <path d="M0,10.7999997 L9,10.7999997 L9,17.0999995 C9,19.5852809 6.98528143,21.5999994 4.50000012,21.5999994 L4.49999988,21.5999994 C2.01471857,21.5999994 3.0435918e-16,19.5852809 0,17.0999995 L0,10.7999997 L0,10.7999997 Z" id="Rectangle-Copy-5" stroke="none" fill="#BFDBFC" fill-rule="evenodd"></path>
                                            <polyline id="Path" stroke="#DCECFC" stroke-width="0.899999976" fill="none" points="0 10.7999997 0 10.7999997 0 10.7999997 8.99999976 10.7999997"></polyline>
                                        </g>
                                    </g>
                                    <g id="Group-28-Copy-5" mask="url(#mask-62)">
                                        <g transform="translate(27.173205, 30.699999) scale(-1, 1) rotate(-300.000000) translate(-27.173205, -30.699999) translate(22.673205, 19.699999)">
                                            <rect id="Rectangle" stroke="none" fill="#37AFA4" fill-rule="evenodd" x="0" y="0" width="8.99999976" height="21.5999994" rx="4.49999988"></rect>
                                            <path d="M0,10.7999997 L9,10.7999997 L9,17.0999995 C9,19.5852809 6.98528143,21.5999994 4.50000012,21.5999994 L4.49999988,21.5999994 C2.01471857,21.5999994 3.0435918e-16,19.5852809 0,17.0999995 L0,10.7999997 L0,10.7999997 Z" id="Rectangle-Copy-5" stroke="none" fill="#FFFFFF" fill-rule="evenodd"></path>
                                            <polyline id="Path" stroke="#DCECFC" stroke-width="0.899999976" fill="none" points="0 10.7999997 0 10.7999997 0 10.7999997 8.99999976 10.7999997"></polyline>
                                        </g>
                                    </g>
                                    <g id="Group-28-Copy-4" mask="url(#mask-62)">
                                        <g transform="translate(26.826794, 41.499999) rotate(-300.000000) translate(-26.826794, -41.499999) translate(22.326794, 30.499999)">
                                            <rect id="Rectangle" stroke="none" fill="#37AFA4" fill-rule="evenodd" x="0" y="0" width="8.99999976" height="21.5999994" rx="4.49999988"></rect>
                                            <path d="M0,10.7999997 L9,10.7999997 L9,17.0999995 C9,19.5852809 6.98528143,21.5999994 4.50000012,21.5999994 L4.49999988,21.5999994 C2.01471857,21.5999994 3.0435918e-16,19.5852809 0,17.0999995 L0,10.7999997 L0,10.7999997 Z" id="Rectangle-Copy-5" stroke="none" fill="#A7CAF3" fill-rule="evenodd"></path>
                                            <polyline id="Path" stroke="#DCECFC" stroke-width="0.899999976" fill="none" points="0 10.7999997 0 10.7999997 0 10.7999997 8.99999976 10.7999997"></polyline>
                                        </g>
                                    </g>
                                    <mask id="mask-64" fill="white">
                                        <use xlink:href="#path-63"></use>
                                    </mask>
                                    <use id="Mask-Copy" stroke="#054A60" stroke-width="0.899999976" stroke-linejoin="round" xlink:href="#path-63"></use>
                                    <path d="M-1.87712133,32.6276693 C5.40758976,36.4726024 15.5727532,37.7542468 28.6183691,36.4726024 L28.6183691,60.0859168 C15.4602819,62.1833272 4.93511127,60.5394052 -2.95714278,55.1541508 L-1.87712133,32.6276693 Z" fill="#0087FF" mask="url(#mask-64)"></path>
                                    <path d="M-2.22888225,37.0039502 C5.86635821,40.3931415 13.5125888,41.675066 20.7098094,40.8497236 L20.7098094,56.7909748 C10.9165912,57.6760273 3.02760715,55.9359087 -2.95714278,51.5706191 L-2.22888225,37.0039502 Z" id="Path-262-Copy" stroke="#FFFFFF" stroke-width="0.899999976" mask="url(#mask-64)"></path>
                                </g>
                            </g>
                            <g id="Group-27" transform="translate(7.200000, 0.000000)">
                                <g id="Path-268" transform="translate(0.000000, 3.584723)">
                                    <mask id="mask-66" fill="white">
                                        <use xlink:href="#path-65"></use>
                                    </mask>
                                    <use id="Mask" fill="#0087FF" xlink:href="#path-65"></use>
                                    <line x1="4.2004869" y1="0.893733905" x2="4.2004869" y2="11.9490779" stroke="#FFFFFF" stroke-width="0.899999976" mask="url(#mask-66)"></line>
                                    <line x1="8.4009738" y1="0.893733905" x2="8.4009738" y2="11.9490779" id="Path-268-Copy" stroke="#FFFFFF" stroke-width="0.899999976" mask="url(#mask-66)"></line>
                                    <line x1="14.2816555" y1="0.893733905" x2="14.2816555" y2="11.9490779" id="Path-268-Copy-2" stroke="#FFFFFF" stroke-width="0.899999976" mask="url(#mask-66)"></line>
                                    <line x1="20.1623371" y1="0.893733905" x2="20.1623371" y2="11.9490779" id="Path-268-Copy-3" stroke="#FFFFFF" stroke-width="0.899999976" mask="url(#mask-66)"></line>
                                </g>
                                <ellipse id="Oval" fill="#054A60" cx="13.4415581" cy="3.58472338" rx="13.4415581" ry="3.58472338"></ellipse>
                            </g>
                        </g>
                    </g>
                    <line x1="309.644154" y1="737.566301" x2="429.576706" y2="716.554192" id="Path-228" stroke="#CC5829" stroke-width="0.899999976" stroke-linecap="round" mask="url(#mask-2)"></line>
                    <path d="M238.088605,625.167452 L309.644154,733.301198 L309.644154,733.301198 L455.414873,711.466962 L456.616443,750.646609 L432.530116,756.62721 C428.440444,769.961229 419.045684,777.21192 404.345837,778.379281 C389.645989,779.546643 376.094359,780.483501 363.690948,781.189856 L318.339286,795.720769 C296.019176,802.87225 271.690363,793.986912 259.232777,774.133963 L182.962811,652.586843 C174.8859,639.715129 178.772857,622.732913 191.644571,614.656002 C192.4229,614.167607 193.225205,613.718507 194.04847,613.310391 C209.618175,605.592053 228.498695,610.675314 238.088605,625.167452 Z" id="Path-244" fill="#37AFA4" mask="url(#mask-2)"></path>
                    <path d="M318.444711,655.857877 L329.330787,701.891062 C331.203871,709.81164 330.266158,718.136979 326.67811,725.442451 L324.128059,730.6345 L324.128059,730.6345" id="Path-276" stroke="#1A5986" stroke-width="0.899999976" stroke-linejoin="round" mask="url(#mask-2)"></path>
                    <line x1="432.530116" y1="756.62721" x2="432.530116" y2="718.730879" id="Path-277" stroke="#FFFFFF" stroke-width="0.899999976" mask="url(#mask-2)"></line>
                    <line x1="432.530116" y1="723.920683" x2="455.414873" y2="720.099341" id="Path-278" stroke="#FFFFFF" stroke-width="0.899999976" mask="url(#mask-2)"></line>
                    <line x1="432.530116" y1="732.020683" x2="455.414873" y2="728.199341" id="Path-278-Copy" stroke="#FFFFFF" stroke-width="0.899999976" mask="url(#mask-2)"></line>
                    <line x1="432.530116" y1="741.020683" x2="455.414873" y2="737.199341" id="Path-278-Copy-2" stroke="#FFFFFF" stroke-width="0.899999976" mask="url(#mask-2)"></line>
                    <line x1="432.530116" y1="750.020683" x2="455.414873" y2="746.199341" id="Path-278-Copy-3" stroke="#FFFFFF" stroke-width="0.899999976" mask="url(#mask-2)"></line>
                    <line x1="449.999988" y1="677.414654" x2="421.888418" y2="655.857877" id="Path-279" stroke="#FFFFFF" stroke-width="0.899999976" mask="url(#mask-2)"></line>
                    <line x1="424.987411" y1="657.902643" x2="440.750619" y2="638.66539" id="Path-280" stroke="#FFFFFF" stroke-width="0.899999976" mask="url(#mask-2)"></line>
                    <line x1="430.387411" y1="662.402643" x2="446.150619" y2="643.165389" id="Path-280-Copy" stroke="#FFFFFF" stroke-width="0.899999976" mask="url(#mask-2)"></line>
                    <line x1="435.787411" y1="666.902642" x2="451.550619" y2="647.665389" id="Path-280-Copy-2" stroke="#FFFFFF" stroke-width="0.899999976" mask="url(#mask-2)"></line>
                    <line x1="443.669015" y1="672.249982" x2="456.950619" y2="653.065389" id="Path-280-Copy-3" stroke="#FFFFFF" stroke-width="0.899999976" mask="url(#mask-2)"></line>
                    <polygon id="Path-282" stroke="#1A5986" stroke-width="0.899999976" stroke-linejoin="round" mask="url(#mask-2)" points="308.448847 647.665389 320.95686 698.297152 317.042214 699.561272 304.84396 648.907887"></polygon>
                    <polyline id="Path-233" stroke="#1A5986" stroke-width="0.899999976" stroke-linejoin="round" mask="url(#mask-2)" points="454.514873 711.399981 309.599992 732.198739 252.449993 637.511479"></polyline>
                    <circle id="Oval" stroke="#000000" stroke-width="1.18800004" stroke-linecap="round" mask="url(#mask-2)" cx="573.749985" cy="467.049988" r="17.5499995"></circle>
                    <circle id="Oval-Copy" stroke="#000000" stroke-width="1.18800004" stroke-linecap="round" mask="url(#mask-2)" cx="532.349986" cy="458.949988" r="17.5499995"></circle>
                    <polyline id="Path-230" stroke="#000000" stroke-width="1.18800004" stroke-linecap="round" mask="url(#mask-2)" points="516.397433 451.173906 511.799735 450.038063 502.246165 429.40698"></polyline>
                    <path d="M549.899985,456.3987 C554.133736,454.711693 556.918597,455.562122 558.254569,458.949988" id="Path-231" stroke="#000000" stroke-width="1.18800004" stroke-linecap="round" mask="url(#mask-2)"></path>
                    <polyline id="Path-232" stroke="#000000" stroke-width="1.18800004" stroke-linecap="round" mask="url(#mask-2)" points="590.720942 471.425867 595.659639 472.954828 589.836324 464.498612"></polyline>
                    <line x1="697.371104" y1="637.118865" x2="773.982663" y2="622.45713" id="Path-234" stroke="#1A5986" stroke-width="0.899999976" stroke-linejoin="round" mask="url(#mask-2)"></line>
                </g>
            </g>
        </g>
    </g>
</svg>