<svg id="Capa_1" enable-background="new 0 0 512 512" height="512" viewBox="0 0 512 512" width="512" xmlns="http://www.w3.org/2000/svg"><g><path d="m512 256c0 141.385-114.615 256-256 256s-256-114.615-256-256 114.615-256 256-256 256 114.615 256 256z" fill="#76b6fa"/><path d="m460 241.84c0 100.428-81.413 181.84-181.84 181.84-100.428 0-181.84-81.413-181.84-181.84s81.412-181.84 181.84-181.84c100.427 0 181.84 81.413 181.84 181.84z" fill="#86befb"/><path d="m96.183 83.229c-1.784-2.108-1.521-5.263.587-7.046 2.107-1.784 5.262-1.521 7.046.587l110 130c1.784 2.108 1.521 5.263-.587 7.046-.939.795-2.086 1.183-3.227 1.183-1.42 0-2.83-.602-3.819-1.771zm159.817-38.229c-2.761 0-5 2.239-5 5v120c0 2.761 2.239 5 5 5s5-2.239 5-5v-120c0-2.761-2.239-5-5-5zm70.93 158.947c.913.71 1.993 1.053 3.066 1.053 1.49 0 2.964-.663 3.95-1.93l70-90c1.695-2.18 1.303-5.321-.877-7.017-2.179-1.695-5.32-1.303-7.017.877l-70 90c-1.694 2.18-1.302 5.321.878 7.017zm163.07 47.053h-160c-2.761 0-5 2.239-5 5s2.239 5 5 5h160c2.761 0 5-2.239 5-5s-2.239-5-5-5zm-196.464 75.464c-1.953-1.952-5.118-1.952-7.071 0-1.953 1.953-1.953 5.119 0 7.071l100 100c.976.977 2.255 1.465 3.535 1.465s2.559-.488 3.536-1.464c1.953-1.953 1.953-5.119 0-7.071zm-71.108 9.165c-2.413-1.343-5.458-.471-6.799 1.942l-50 90c-1.341 2.414-.472 5.458 1.942 6.799.769.428 1.602.63 2.424.63 1.757 0 3.461-.928 4.375-2.573l50-90c1.342-2.413.472-5.457-1.942-6.798zm-28.587-38.83c-1.769-2.123-4.921-2.408-7.042-.641l-120 100c-2.122 1.768-2.408 4.921-.641 7.042.989 1.187 2.411 1.799 3.844 1.799 1.129 0 2.264-.38 3.198-1.159l120-100c2.122-1.767 2.409-4.92.641-7.041zm-123.841-35.799h110c2.761 0 5-2.239 5-5s-2.239-5-5-5h-110c-2.761 0-5 2.239-5 5s2.239 5 5 5z" fill="#1380e2"/><path d="m276 50c0 11.046-8.954 20-20 20s-20-8.954-20-20 8.954-20 20-20 20 8.954 20 20zm-168 354c0 18.778-15.222 34-34 34s-34-15.222-34-34 15.222-34 34-34 34 15.222 34 34zm404-148c0 18.778-15.222 34-34 34s-34-15.222-34-34 15.222-34 34-34 34 15.222 34 34z" fill="#453d83"/><path d="m420 110c0 11.046-8.954 20-20 20s-20-8.954-20-20 8.954-20 20-20 20 8.954 20 20zm-230 320c0 11.046-8.954 20-20 20s-20-8.954-20-20 8.954-20 20-20 20 8.954 20 20zm-100-174c0 11.046-8.954 20-20 20s-20-8.954-20-20 8.954-20 20-20 20 8.954 20 20zm48-180c0 18.778-15.222 34-34 34s-34-15.222-34-34 15.222-34 34-34 34 15.222 34 34zm302 359c0 24.853-20.147 45-45 45s-45-20.147-45-45 20.147-45 45-45 45 20.147 45 45z" fill="#51489a"/><path d="m205 472.5c0 6.904-5.596 12.5-12.5 12.5s-12.5-5.596-12.5-12.5 5.596-12.5 12.5-12.5 12.5 5.596 12.5 12.5zm-80-320c0 6.904-5.596 12.5-12.5 12.5s-12.5-5.596-12.5-12.5 5.596-12.5 12.5-12.5 12.5 5.596 12.5 12.5zm355-45c0 6.904-5.596 12.5-12.5 12.5s-12.5-5.596-12.5-12.5 5.596-12.5 12.5-12.5 12.5 5.596 12.5 12.5z" fill="#453d83"/><path d="m372 256c0 64.065-51.935 116-116 116s-116-51.935-116-116 51.935-116 116-116 116 51.935 116 116z" fill="#5f55af"/><path d="m349.82 324.232c-21.091 28.952-55.258 47.768-93.82 47.768-64.065 0-116-51.935-116-116 0-38.562 18.816-72.729 47.768-93.82-13.949 19.148-22.18 42.729-22.18 68.232 0 64.065 51.935 116 116 116 25.504 0 49.085-8.23 68.232-22.18z" fill="#51489a"/><path d="m138 76c0 4.065-.714 7.964-2.023 11.577-3.614 1.309-7.512 2.023-11.577 2.023-18.778 0-34-15.222-34-34 0-4.065.714-7.964 2.023-11.577 3.613-1.309 7.512-2.023 11.577-2.023 18.778 0 34 15.222 34 34zm262 14c-2.391 0-4.685.42-6.81 1.19-.77 2.125-1.19 4.419-1.19 6.81 0 11.046 8.954 20 20 20 2.391 0 4.685-.42 6.81-1.19.77-2.126 1.19-4.419 1.19-6.81 0-11.046-8.954-20-20-20zm-210 340c0 2.391-.42 4.685-1.19 6.81-2.126.77-4.419 1.19-6.81 1.19-11.046 0-20-8.954-20-20 0-2.391.42-4.685 1.19-6.81 2.126-.77 4.419-1.19 6.81-1.19 11.046 0 20 8.954 20 20zm-100-174c0 2.391-.42 4.685-1.19 6.81-2.125.77-4.419 1.19-6.81 1.19-11.046 0-20-8.954-20-20 0-2.391.42-4.685 1.19-6.81 2.126-.77 4.419-1.19 6.81-1.19 11.046 0 20 8.954 20 20zm350 179c0 5.381-.945 10.54-2.677 15.323-4.783 1.732-9.942 2.677-15.323 2.677-24.853 0-45-20.147-45-45 0-5.381.945-10.54 2.677-15.323 4.783-1.732 9.942-2.677 15.323-2.677 24.853 0 45 20.147 45 45z" fill="#5f55af"/><path d="m256 30c-2.391 0-4.685.42-6.81 1.19-.77 2.125-1.19 4.419-1.19 6.81 0 11.046 8.954 20 20 20 2.391 0 4.685-.42 6.81-1.19.77-2.126 1.19-4.419 1.19-6.81 0-11.046-8.954-20-20-20zm-148 374c0 4.065-.714 7.964-2.023 11.577-3.614 1.309-7.512 2.023-11.577 2.023-18.778 0-34-15.222-34-34 0-4.065.714-7.964 2.023-11.577 3.613-1.309 7.512-2.023 11.577-2.023 18.778 0 34 15.222 34 34zm370-182c-4.065 0-7.964.714-11.577 2.023-1.309 3.614-2.023 7.512-2.023 11.577 0 18.778 15.222 34 34 34 4.065 0 7.964-.714 11.577-2.023 1.309-3.613 2.023-7.512 2.023-11.577 0-18.778-15.222-34-34-34z" fill="#51489a"/><path d="m210.038 301.962c-13.668-13.668-13.668-35.829 0-49.497l31.213-31.213c13.668-13.668 35.829-13.668 49.497 0 13.668 13.668 13.668 35.829 0 49.497l-31.213 31.213c-13.668 13.668-35.829 13.668-49.497 0z" fill="#e9cc5a"/><path d="m223.473 265.899c-11.34 11.34-13.271 28.525-5.795 41.857-2.737-1.535-5.312-3.467-7.64-5.795-13.668-13.668-13.668-35.829 0-49.498l29.836-29.836c.749.918 1.551 1.808 2.407 2.664l10.899 10.899z" fill="#eac23f"/><path d="m301.962 259.536-17.678 17.678-49.497-49.498 17.678-17.678c13.668-13.668 35.829-13.668 49.497 0 13.668 13.669 13.668 35.829 0 49.498z" fill="#e9f3fe"/><path d="m307.757 217.678c-13.332-7.477-30.517-5.545-41.857 5.795l-17.678 17.678-13.435-13.435 17.678-17.678c13.668-13.668 35.829-13.668 49.497 0 2.328 2.328 4.259 4.903 5.795 7.64z" fill="#c8e2fd"/><path d="m280 405c0 2.761-2.239 5-5 5h-50c-2.761 0-5-2.239-5-5s2.239-5 5-5h50c2.761 0 5 2.239 5 5zm-40 35h-15c-2.761 0-5 2.239-5 5s2.239 5 5 5h15c2.761 0 5-2.239 5-5s-2.239-5-5-5zm25-20h-40c-2.761 0-5 2.239-5 5s2.239 5 5 5h40c2.761 0 5-2.239 5-5s-2.239-5-5-5zm45-360h-15c-2.761 0-5 2.239-5 5s2.239 5 5 5h15c2.761 0 5-2.239 5-5s-2.239-5-5-5zm25-20h-40c-2.761 0-5 2.239-5 5s2.239 5 5 5h40c2.761 0 5-2.239 5-5s-2.239-5-5-5z" fill="#e9f3fe"/></g></svg>